  0
SECTION
  2
HEADER
  9
$ACADVER
  1
AC1024
  9
$ACADMAINTVER
 70
6
  9
$DWGCODEPAGE
  3
ANSI_1252
  9
$LASTSAVEDBY
  1
ezdxf
  9
$INSBASE
 10
0.0
 20
0.0
 30
0.0
  9
$EXTMIN
 10
1e+20
 20
1e+20
 30
1e+20
  9
$EXTMAX
 10
-1e+20
 20
-1e+20
 30
-1e+20
  9
$LIMMIN
 10
0.0
 20
0.0
  9
$LIMMAX
 10
420.0
 20
297.0
  9
$ORTHOMODE
 70
0
  9
$REGENMODE
 70
1
  9
$FILLMODE
 70
1
  9
$QTEXTMODE
 70
0
  9
$MIRRTEXT
 70
1
  9
$LTSCALE
 40
1.0
  9
$ATTMODE
 70
1
  9
$TEXTSIZE
 40
2.5
  9
$TRACEWID
 40
1.0
  9
$TEXTSTYLE
  7
Standard
  9
$CLAYER
  8
0
  9
$CELTYPE
  6
ByLayer
  9
$CECOLOR
 62
256
  9
$CELTSCALE
 40
1.0
  9
$DISPSILH
 70
0
  9
$DIMSCALE
 40
1.0
  9
$DIMASZ
 40
2.5
  9
$DIMEXO
 40
0.625
  9
$DIMDLI
 40
3.75
  9
$DIMRND
 40
0.0
  9
$DIMDLE
 40
0.0
  9
$DIMEXE
 40
1.25
  9
$DIMTP
 40
0.0
  9
$DIMTM
 40
0.0
  9
$DIMTXT
 40
2.5
  9
$DIMCEN
 40
2.5
  9
$DIMTSZ
 40
0.0
  9
$DIMTOL
 70
0
  9
$DIMLIM
 70
0
  9
$DIMTIH
 70
0
  9
$DIMTOH
 70
0
  9
$DIMSE1
 70
0
  9
$DIMSE2
 70
0
  9
$DIMTAD
 70
1
  9
$DIMZIN
 70
8
  9
$DIMBLK
  1

  9
$DIMASO
 70
1
  9
$DIMSHO
 70
1
  9
$DIMPOST
  1

  9
$DIMAPOST
  1

  9
$DIMALT
 70
0
  9
$DIMALTD
 70
3
  9
$DIMALTF
 40
0.03937007874
  9
$DIMLFAC
 40
1.0
  9
$DIMTOFL
 70
1
  9
$DIMTVP
 40
0.0
  9
$DIMTIX
 70
0
  9
$DIMSOXD
 70
0
  9
$DIMSAH
 70
0
  9
$DIMBLK1
  1

  9
$DIMBLK2
  1

  9
$DIMSTYLE
  2
ISO-25
  9
$DIMCLRD
 70
0
  9
$DIMCLRE
 70
0
  9
$DIMCLRT
 70
0
  9
$DIMTFAC
 40
1.0
  9
$DIMGAP
 40
0.625
  9
$DIMJUST
 70
0
  9
$DIMSD1
 70
0
  9
$DIMSD2
 70
0
  9
$DIMTOLJ
 70
0
  9
$DIMTZIN
 70
8
  9
$DIMALTZ
 70
0
  9
$DIMALTTZ
 70
0
  9
$DIMUPT
 70
0
  9
$DIMDEC
 70
2
  9
$DIMTDEC
 70
2
  9
$DIMALTU
 70
2
  9
$DIMALTTD
 70
3
  9
$DIMTXSTY
  7
Standard
  9
$DIMAUNIT
 70
0
  9
$DIMADEC
 70
0
  9
$DIMALTRND
 40
0.0
  9
$DIMAZIN
 70
0
  9
$DIMDSEP
 70
44
  9
$DIMATFIT
 70
3
  9
$DIMFRAC
 70
0
  9
$DIMLDRBLK
  1

  9
$DIMLUNIT
 70
2
  9
$DIMLWD
 70
-2
  9
$DIMLWE
 70
-2
  9
$DIMTMOVE
 70
0
  9
$DIMFXL
 40
1.0
  9
$DIMFXLON
 70
0
  9
$DIMJOGANG
 40
0.785398163397
  9
$DIMTFILL
 70
0
  9
$DIMTFILLCLR
 70
0
  9
$DIMARCSYM
 70
0
  9
$DIMLTYPE
  6

  9
$DIMLTEX1
  6

  9
$DIMLTEX2
  6

  9
$DIMTXTDIRECTION
 70
0
  9
$LUNITS
 70
2
  9
$LUPREC
 70
4
  9
$SKETCHINC
 40
1.0
  9
$FILLETRAD
 40
10.0
  9
$AUNITS
 70
0
  9
$AUPREC
 70
2
  9
$MENU
  1
.
  9
$ELEVATION
 40
0.0
  9
$PELEVATION
 40
0.0
  9
$THICKNESS
 40
0.0
  9
$LIMCHECK
 70
0
  9
$CHAMFERA
 40
0.0
  9
$CHAMFERB
 40
0.0
  9
$CHAMFERC
 40
0.0
  9
$CHAMFERD
 40
0.0
  9
$SKPOLY
 70
0
  9
$TDCREATE
 40
2461216.552222222
  9
$TDUCREATE
 40
2458532.153996898
  9
$TDUPDATE
 40
2461216.552222222
  9
$TDUUPDATE
 40
2458532.1544311
  9
$TDINDWG
 40
0.0
  9
$TDUSRTIMER
 40
0.0
  9
$USRTIMER
 70
1
  9
$ANGBASE
 50
0.0
  9
$ANGDIR
 70
0
  9
$PDMODE
 70
0
  9
$PDSIZE
 40
0.0
  9
$PLINEWID
 40
0.0
  9
$SPLFRAME
 70
0
  9
$SPLINETYPE
 70
6
  9
$SPLINESEGS
 70
8
  9
$HANDSEED
  5
198
  9
$SURFTAB1
 70
6
  9
$SURFTAB2
 70
6
  9
$SURFTYPE
 70
6
  9
$SURFU
 70
6
  9
$SURFV
 70
6
  9
$UCSBASE
  2

  9
$UCSNAME
  2

  9
$UCSORG
 10
0.0
 20
0.0
 30
0.0
  9
$UCSXDIR
 10
1.0
 20
0.0
 30
0.0
  9
$UCSYDIR
 10
0.0
 20
1.0
 30
0.0
  9
$UCSORTHOREF
  2

  9
$UCSORTHOVIEW
 70
0
  9
$UCSORGTOP
 10
0.0
 20
0.0
 30
0.0
  9
$UCSORGBOTTOM
 10
0.0
 20
0.0
 30
0.0
  9
$UCSORGLEFT
 10
0.0
 20
0.0
 30
0.0
  9
$UCSORGRIGHT
 10
0.0
 20
0.0
 30
0.0
  9
$UCSORGFRONT
 10
0.0
 20
0.0
 30
0.0
  9
$UCSORGBACK
 10
0.0
 20
0.0
 30
0.0
  9
$PUCSBASE
  2

  9
$PUCSNAME
  2

  9
$PUCSORG
 10
0.0
 20
0.0
 30
0.0
  9
$PUCSXDIR
 10
1.0
 20
0.0
 30
0.0
  9
$PUCSYDIR
 10
0.0
 20
1.0
 30
0.0
  9
$PUCSORTHOREF
  2

  9
$PUCSORTHOVIEW
 70
0
  9
$PUCSORGTOP
 10
0.0
 20
0.0
 30
0.0
  9
$PUCSORGBOTTOM
 10
0.0
 20
0.0
 30
0.0
  9
$PUCSORGLEFT
 10
0.0
 20
0.0
 30
0.0
  9
$PUCSORGRIGHT
 10
0.0
 20
0.0
 30
0.0
  9
$PUCSORGFRONT
 10
0.0
 20
0.0
 30
0.0
  9
$PUCSORGBACK
 10
0.0
 20
0.0
 30
0.0
  9
$USERI1
 70
0
  9
$USERI2
 70
0
  9
$USERI3
 70
0
  9
$USERI4
 70
0
  9
$USERI5
 70
0
  9
$USERR1
 40
0.0
  9
$USERR2
 40
0.0
  9
$USERR3
 40
0.0
  9
$USERR4
 40
0.0
  9
$USERR5
 40
0.0
  9
$WORLDVIEW
 70
1
  9
$SHADEDGE
 70
3
  9
$SHADEDIF
 70
70
  9
$TILEMODE
 70
1
  9
$MAXACTVP
 70
64
  9
$PINSBASE
 10
0.0
 20
0.0
 30
0.0
  9
$PLIMCHECK
 70
0
  9
$PEXTMIN
 10
1e+20
 20
1e+20
 30
1e+20
  9
$PEXTMAX
 10
-1e+20
 20
-1e+20
 30
-1e+20
  9
$PLIMMIN
 10
0.0
 20
0.0
  9
$PLIMMAX
 10
420.0
 20
297.0
  9
$UNITMODE
 70
0
  9
$VISRETAIN
 70
1
  9
$PLINEGEN
 70
0
  9
$PSLTSCALE
 70
1
  9
$TREEDEPTH
 70
3020
  9
$CMLSTYLE
  2
Standard
  9
$CMLJUST
 70
0
  9
$CMLSCALE
 40
20.0
  9
$PROXYGRAPHICS
 70
1
  9
$MEASUREMENT
 70
1
  9
$CELWEIGHT
370
-1
  9
$ENDCAPS
280
0
  9
$JOINSTYLE
280
0
  9
$LWDISPLAY
290
0
  9
$INSUNITS
 70
6
  9
$HYPERLINKBASE
  1

  9
$STYLESHEET
  1

  9
$XEDIT
290
1
  9
$CEPSNTYPE
380
0
  9
$PSTYLEMODE
290
1
  9
$FINGERPRINTGUID
  2
{F2F7F04E-A1FC-47A8-88A6-BFE66015FD81}
  9
$VERSIONGUID
  2
{E314F627-C751-4F97-B791-1D200F6502A4}
  9
$EXTNAMES
290
1
  9
$PSVPSCALE
 40
0.0
  9
$OLESTARTUP
290
0
  9
$SORTENTS
280
127
  9
$INDEXCTL
280
0
  9
$HIDETEXT
280
1
  9
$XCLIPFRAME
280
1
  9
$HALOGAP
280
0
  9
$OBSCOLOR
 70
257
  9
$OBSLTYPE
280
0
  9
$INTERSECTIONDISPLAY
280
0
  9
$INTERSECTIONCOLOR
 70
257
  9
$DIMASSOC
280
2
  9
$PROJECTNAME
  1

  9
$CAMERADISPLAY
290
0
  9
$LENSLENGTH
 40
50.0
  9
$CAMERAHEIGHT
 40
0.0
  9
$STEPSPERSEC
 40
24.0
  9
$STEPSIZE
 40
100.0
  9
$3DDWFPREC
 40
2.0
  9
$PSOLWIDTH
 40
0.005
  9
$PSOLHEIGHT
 40
0.08
  9
$LOFTANG1
 40
1.570796326795
  9
$LOFTANG2
 40
1.570796326795
  9
$LOFTMAG1
 40
0.0
  9
$LOFTMAG2
 40
0.0
  9
$LOFTPARAM
 70
7
  9
$LOFTNORMALS
280
1
  9
$LATITUDE
 40
37.795
  9
$LONGITUDE
 40
-122.394
  9
$NORTHDIRECTION
 40
0.0
  9
$TIMEZONE
 70
-8000
  9
$LIGHTGLYPHDISPLAY
280
1
  9
$TILEMODELIGHTSYNCH
280
1
  9
$CMATERIAL
347
20
  9
$SOLIDHIST
280
0
  9
$SHOWHIST
280
1
  9
$DWFFRAME
280
2
  9
$DGNFRAME
280
2
  9
$REALWORLDSCALE
290
1
  9
$INTERFERECOLOR
 62
256
  9
$CSHADOW
280
0
  9
$SHADOWPLANELOCATION
 40
0.0
  0
ENDSEC
  0
SECTION
  2
CLASSES
  0
CLASS
  1
ACDBDICTIONARYWDFLT
  2
AcDbDictionaryWithDefault
  3
ObjectDBX Classes
 90
0
 91
0
280
0
281
0
  0
CLASS
  1
SUN
  2
AcDbSun
  3
SCENEOE
 90
1153
 91
0
280
0
281
0
  0
CLASS
  1
VISUALSTYLE
  2
AcDbVisualStyle
  3
ObjectDBX Classes
 90
4095
 91
0
280
0
281
0
  0
CLASS
  1
MATERIAL
  2
AcDbMaterial
  3
ObjectDBX Classes
 90
1153
 91
0
280
0
281
0
  0
CLASS
  1
SCALE
  2
AcDbScale
  3
ObjectDBX Classes
 90
1153
 91
0
280
0
281
0
  0
CLASS
  1
TABLESTYLE
  2
AcDbTableStyle
  3
ObjectDBX Classes
 90
4095
 91
0
280
0
281
0
  0
CLASS
  1
MLEADERSTYLE
  2
AcDbMLeaderStyle
  3
ACDB_MLEADERSTYLE_CLASS
 90
4095
 91
0
280
0
281
0
  0
CLASS
  1
DICTIONARYVAR
  2
AcDbDictionaryVar
  3
ObjectDBX Classes
 90
0
 91
0
280
0
281
0
  0
CLASS
  1
CELLSTYLEMAP
  2
AcDbCellStyleMap
  3
ObjectDBX Classes
 90
1152
 91
0
280
0
281
0
  0
CLASS
  1
MENTALRAYRENDERSETTINGS
  2
AcDbMentalRayRenderSettings
  3
SCENEOE
 90
1024
 91
0
280
0
281
0
  0
CLASS
  1
ACDBDETAILVIEWSTYLE
  2
AcDbDetailViewStyle
  3
ObjectDBX Classes
 90
1025
 91
0
280
0
281
0
  0
CLASS
  1
ACDBSECTIONVIEWSTYLE
  2
AcDbSectionViewStyle
  3
ObjectDBX Classes
 90
1025
 91
0
280
0
281
0
  0
CLASS
  1
RASTERVARIABLES
  2
AcDbRasterVariables
  3
ISM
 90
0
 91
0
280
0
281
0
  0
CLASS
  1
LAYOUT
  2
AcDbLayout
  3
ObjectDBX Classes
 90
0
 91
0
280
0
281
0
  0
CLASS
  1
ACDBPLACEHOLDER
  2
AcDbPlaceHolder
  3
ObjectDBX Classes
 90
0
 91
0
280
0
281
0
  0
ENDSEC
  0
SECTION
  2
TABLES
  0
TABLE
  2
VPORT
  5
8
330
0
100
AcDbSymbolTable
 70
1
  0
VPORT
  5
23
330
8
100
AcDbSymbolTableRecord
100
AcDbViewportTableRecord
  2
*Active
 70
0
 10
0.0
 20
0.0
 11
1.0
 21
1.0
 12
0.0
 22
0.0
 13
0.0
 23
0.0
 14
0.5
 24
0.5
 15
0.5
 25
0.5
 16
0.0
 26
0.0
 36
1.0
 17
0.0
 27
0.0
 37
0.0
 40
1000.0
 41
1.34
 42
50.0
 43
0.0
 44
0.0
 50
0.0
 51
0.0
 71
0
 72
1000
 73
1
 74
3
 75
0
 76
0
 77
0
 78
0
281
0
 65
0
146
0.0
  0
ENDTAB
  0
TABLE
  2
LTYPE
  5
2
330
0
100
AcDbSymbolTable
 70
3
  0
LTYPE
  5
24
330
2
100
AcDbSymbolTableRecord
100
AcDbLinetypeTableRecord
  2
ByBlock
 70
0
  3

 72
65
 73
0
 40
0.0
  0
LTYPE
  5
25
330
2
100
AcDbSymbolTableRecord
100
AcDbLinetypeTableRecord
  2
ByLayer
 70
0
  3

 72
65
 73
0
 40
0.0
  0
LTYPE
  5
26
330
2
100
AcDbSymbolTableRecord
100
AcDbLinetypeTableRecord
  2
Continuous
 70
0
  3

 72
65
 73
0
 40
0.0
  0
ENDTAB
  0
TABLE
  2
LAYER
  5
1
330
0
100
AcDbSymbolTable
 70
11
  0
LAYER
  5
27
330
1
100
AcDbSymbolTableRecord
100
AcDbLayerTableRecord
  2
0
 70
0
 62
7
  6
Continuous
370
-3
390
13
347
21
  0
LAYER
  5
28
330
1
100
AcDbSymbolTableRecord
100
AcDbLayerTableRecord
  2
Defpoints
 70
0
 62
7
  6
Continuous
290
0
370
-3
390
13
347
21
  0
LAYER
  5
2F
330
1
100
AcDbSymbolTableRecord
100
AcDbLayerTableRecord
  2
BORDE
 70
0
 62
7
  6
Continuous
370
-3
390
13
347
21
  0
LAYER
  5
30
330
1
100
AcDbSymbolTableRecord
100
AcDbLayerTableRecord
  2
TITULO
 70
0
 62
7
  6
Continuous
370
-3
390
13
347
21
  0
LAYER
  5
31
330
1
100
AcDbSymbolTableRecord
100
AcDbLayerTableRecord
  2
PROCESO
 70
0
 62
5
  6
Continuous
370
-3
390
13
347
21
  0
LAYER
  5
32
330
1
100
AcDbSymbolTableRecord
100
AcDbLayerTableRecord
  2
VALVULAS
 70
0
 62
2
  6
Continuous
370
-3
390
13
347
21
  0
LAYER
  5
33
330
1
100
AcDbSymbolTableRecord
100
AcDbLayerTableRecord
  2
INSTRUMENTOS
 70
0
 62
3
  6
Continuous
370
-3
390
13
347
21
  0
LAYER
  5
34
330
1
100
AcDbSymbolTableRecord
100
AcDbLayerTableRecord
  2
ANOTACIONES
 70
0
 62
8
  6
Continuous
370
-3
390
13
347
21
  0
LAYER
  5
35
330
1
100
AcDbSymbolTableRecord
100
AcDbLayerTableRecord
  2
DATOS
 70
0
 62
7
  6
Continuous
370
-3
390
13
347
21
  0
LAYER
  5
36
330
1
100
AcDbSymbolTableRecord
100
AcDbLayerTableRecord
  2
COTAS
 70
0
 62
1
  6
Continuous
370
-3
390
13
347
21
  0
LAYER
  5
37
330
1
100
AcDbSymbolTableRecord
100
AcDbLayerTableRecord
  2
TAGLIST
 70
0
 62
7
  6
Continuous
370
-3
390
13
347
21
  0
ENDTAB
  0
TABLE
  2
STYLE
  5
5
330
0
100
AcDbSymbolTable
 70
1
  0
STYLE
  5
38
330
5
100
AcDbSymbolTableRecord
100
AcDbTextStyleTableRecord
  2
STANDARD
 70
0
 40
0.0
 41
1.0
 50
0.0
 71
0
 42
2.5
  3
txt.shx
  4

  0
ENDTAB
  0
TABLE
  2
VIEW
  5
7
330
0
100
AcDbSymbolTable
 70
0
  0
ENDTAB
  0
TABLE
  2
UCS
  5
6
330
0
100
AcDbSymbolTable
 70
0
  0
ENDTAB
  0
TABLE
  2
APPID
  5
3
330
0
100
AcDbSymbolTable
 70
3
  0
APPID
  5
2A
330
3
100
AcDbSymbolTableRecord
100
AcDbRegAppTableRecord
  2
ACAD
 70
0
  0
APPID
  5
195
330
3
100
AcDbSymbolTableRecord
100
AcDbRegAppTableRecord
  2
HATCHBACKGROUNDCOLOR
 70
0
  0
APPID
  5
196
330
3
100
AcDbSymbolTableRecord
100
AcDbRegAppTableRecord
  2
EZDXF
 70
0
  0
ENDTAB
  0
TABLE
  2
DIMSTYLE
  5
4
330
0
100
AcDbSymbolTable
 70
1
100
AcDbDimStyleTable
  0
DIMSTYLE
105
2B
330
4
100
AcDbSymbolTableRecord
100
AcDbDimStyleTableRecord
  2
Standard
 70
0
 40
1.0
 41
2.5
 42
0.625
 43
3.75
 44
1.25
 45
0.0
 46
0.0
 47
0.0
 48
0.0
 49
2.5
140
2.5
141
2.5
142
0.0
143
0.03937007874
144
1.0
145
0.0
146
1.0
147
0.625
148
0.0
 69
0
 70
0
 71
0
 72
0
 73
0
 74
0
 75
0
 76
0
 77
1
 78
8
 79
3
170
0
171
3
172
1
173
0
174
0
175
0
176
0
177
0
178
0
179
2
271
2
272
2
273
2
274
3
275
0
276
0
277
2
278
44
279
0
280
0
281
0
282
0
283
0
284
8
285
0
286
0
288
0
289
3
290
0
371
-2
372
-2
  0
ENDTAB
  0
TABLE
  2
BLOCK_RECORD
  5
9
330
0
100
AcDbSymbolTable
 70
16
  0
BLOCK_RECORD
  5
17
330
9
100
AcDbSymbolTableRecord
100
AcDbBlockTableRecord
  2
*Model_Space
340
1A
 70
0
280
1
281
0
  0
BLOCK_RECORD
  5
1B
330
9
100
AcDbSymbolTableRecord
100
AcDbBlockTableRecord
  2
*Paper_Space
340
1E
 70
0
280
1
281
0
  0
BLOCK_RECORD
  5
39
330
9
100
AcDbSymbolTableRecord
100
AcDbBlockTableRecord
  2
ISA_GATE_VALVE
340
0
 70
0
280
1
281
0
  0
BLOCK_RECORD
  5
42
330
9
100
AcDbSymbolTableRecord
100
AcDbBlockTableRecord
  2
ISA_CONTROL_VALVE
340
0
 70
0
280
1
281
0
  0
BLOCK_RECORD
  5
4E
330
9
100
AcDbSymbolTableRecord
100
AcDbBlockTableRecord
  2
ISA_ORIFICE
340
0
 70
0
280
1
281
0
  0
BLOCK_RECORD
  5
53
330
9
100
AcDbSymbolTableRecord
100
AcDbBlockTableRecord
  2
ISA_STRAINER
340
0
 70
0
280
1
281
0
  0
BLOCK_RECORD
  5
5C
330
9
100
AcDbSymbolTableRecord
100
AcDbBlockTableRecord
  2
ISA_ULTRASONIC
340
0
 70
0
280
1
281
0
  0
BLOCK_RECORD
  5
66
330
9
100
AcDbSymbolTableRecord
100
AcDbBlockTableRecord
  2
ISA_TURBINE
340
0
 70
0
280
1
281
0
  0
BLOCK_RECORD
  5
6E
330
9
100
AcDbSymbolTableRecord
100
AcDbBlockTableRecord
  2
ISA_CORIOLIS
340
0
 70
0
280
1
281
0
  0
BLOCK_RECORD
  5
74
330
9
100
AcDbSymbolTableRecord
100
AcDbBlockTableRecord
  2
ISA_BUBBLE
340
0
 70
0
280
1
281
0
  0
BLOCK_RECORD
  5
143
330
9
100
AcDbSymbolTableRecord
100
AcDbBlockTableRecord
  2
*U1
340
0
 70
0
280
1
281
0
  0
BLOCK_RECORD
  5
14E
330
9
100
AcDbSymbolTableRecord
100
AcDbBlockTableRecord
  2
*U2
340
0
 70
0
280
1
281
0
  0
BLOCK_RECORD
  5
159
330
9
100
AcDbSymbolTableRecord
100
AcDbBlockTableRecord
  2
*U3
340
0
 70
0
280
1
281
0
  0
BLOCK_RECORD
  5
164
330
9
100
AcDbSymbolTableRecord
100
AcDbBlockTableRecord
  2
*U4
340
0
 70
0
280
1
281
0
  0
BLOCK_RECORD
  5
179
330
9
100
AcDbSymbolTableRecord
100
AcDbBlockTableRecord
  2
*D5
340
0
 70
0
280
1
281
0
  0
BLOCK_RECORD
  5
17E
330
9
100
AcDbSymbolTableRecord
100
AcDbBlockTableRecord
  2
_CLOSEDFILLED
340
0
 70
0
280
1
281
0
  0
ENDTAB
  0
ENDSEC
  0
SECTION
  2
BLOCKS
  0
BLOCK
  5
18
330
17
100
AcDbEntity
  8
0
100
AcDbBlockBegin
  2
*Model_Space
 70
0
 10
0.0
 20
0.0
 30
0.0
  3
*Model_Space
  1

  0
ENDBLK
  5
19
330
17
100
AcDbEntity
  8
0
100
AcDbBlockEnd
  0
BLOCK
  5
1C
330
1B
100
AcDbEntity
  8
0
100
AcDbBlockBegin
  2
*Paper_Space
 70
0
 10
0.0
 20
0.0
 30
0.0
  3
*Paper_Space
  1

  0
ENDBLK
  5
1D
330
1B
100
AcDbEntity
  8
0
100
AcDbBlockEnd
  0
BLOCK
  5
3A
330
39
100
AcDbEntity
  8
0
100
AcDbBlockBegin
  2
ISA_GATE_VALVE
 70
0
 10
0.0
 20
0.0
 30
0.0
  3
ISA_GATE_VALVE
  1

  0
LINE
  5
3C
330
39
100
AcDbEntity
  8
0
100
AcDbLine
 10
-7.0
 20
-7.0
 30
0.0
 11
0.0
 21
0.0
 31
0.0
  0
LINE
  5
3D
330
39
100
AcDbEntity
  8
0
100
AcDbLine
 10
-7.0
 20
7.0
 30
0.0
 11
0.0
 21
0.0
 31
0.0
  0
LINE
  5
3E
330
39
100
AcDbEntity
  8
0
100
AcDbLine
 10
-7.0
 20
-7.0
 30
0.0
 11
-7.0
 21
7.0
 31
0.0
  0
LINE
  5
3F
330
39
100
AcDbEntity
  8
0
100
AcDbLine
 10
7.0
 20
-7.0
 30
0.0
 11
0.0
 21
0.0
 31
0.0
  0
LINE
  5
40
330
39
100
AcDbEntity
  8
0
100
AcDbLine
 10
7.0
 20
7.0
 30
0.0
 11
0.0
 21
0.0
 31
0.0
  0
LINE
  5
41
330
39
100
AcDbEntity
  8
0
100
AcDbLine
 10
7.0
 20
-7.0
 30
0.0
 11
7.0
 21
7.0
 31
0.0
  0
ENDBLK
  5
3B
330
39
100
AcDbEntity
  8
0
100
AcDbBlockEnd
  0
BLOCK
  5
43
330
42
100
AcDbEntity
  8
0
100
AcDbBlockBegin
  2
ISA_CONTROL_VALVE
 70
0
 10
0.0
 20
0.0
 30
0.0
  3
ISA_CONTROL_VALVE
  1

  0
LINE
  5
45
330
42
100
AcDbEntity
  8
0
100
AcDbLine
 10
-7.0
 20
-7.0
 30
0.0
 11
0.0
 21
0.0
 31
0.0
  0
LINE
  5
46
330
42
100
AcDbEntity
  8
0
100
AcDbLine
 10
-7.0
 20
7.0
 30
0.0
 11
0.0
 21
0.0
 31
0.0
  0
LINE
  5
47
330
42
100
AcDbEntity
  8
0
100
AcDbLine
 10
-7.0
 20
-7.0
 30
0.0
 11
-7.0
 21
7.0
 31
0.0
  0
LINE
  5
48
330
42
100
AcDbEntity
  8
0
100
AcDbLine
 10
7.0
 20
-7.0
 30
0.0
 11
0.0
 21
0.0
 31
0.0
  0
LINE
  5
49
330
42
100
AcDbEntity
  8
0
100
AcDbLine
 10
7.0
 20
7.0
 30
0.0
 11
0.0
 21
0.0
 31
0.0
  0
LINE
  5
4A
330
42
100
AcDbEntity
  8
0
100
AcDbLine
 10
7.0
 20
-7.0
 30
0.0
 11
7.0
 21
7.0
 31
0.0
  0
LINE
  5
4B
330
42
100
AcDbEntity
  8
0
100
AcDbLine
 10
0.0
 20
0.0
 30
0.0
 11
0.0
 21
13.0
 31
0.0
  0
CIRCLE
  5
4C
330
42
100
AcDbEntity
  8
0
100
AcDbCircle
 10
0.0
 20
17.0
 30
0.0
 40
4.0
  0
TEXT
  5
4D
330
42
100
AcDbEntity
  8
0
100
AcDbText
 10
0.0
 20
16.0
 30
0.0
 40
3.0
  1
A
 72
1
 11
0.0
 21
16.0
 31
0.0
100
AcDbText
 73
2
  0
ENDBLK
  5
44
330
42
100
AcDbEntity
  8
0
100
AcDbBlockEnd
  0
BLOCK
  5
4F
330
4E
100
AcDbEntity
  8
0
100
AcDbBlockBegin
  2
ISA_ORIFICE
 70
0
 10
0.0
 20
0.0
 30
0.0
  3
ISA_ORIFICE
  1

  0
LINE
  5
51
330
4E
100
AcDbEntity
  8
0
100
AcDbLine
 10
-2.0
 20
-10.0
 30
0.0
 11
-2.0
 21
10.0
 31
0.0
  0
LINE
  5
52
330
4E
100
AcDbEntity
  8
0
100
AcDbLine
 10
2.0
 20
-10.0
 30
0.0
 11
2.0
 21
10.0
 31
0.0
  0
ENDBLK
  5
50
330
4E
100
AcDbEntity
  8
0
100
AcDbBlockEnd
  0
BLOCK
  5
54
330
53
100
AcDbEntity
  8
0
100
AcDbBlockBegin
  2
ISA_STRAINER
 70
0
 10
0.0
 20
0.0
 30
0.0
  3
ISA_STRAINER
  1

  0
LINE
  5
56
330
53
100
AcDbEntity
  8
0
100
AcDbLine
 10
-14.0
 20
-8.0
 30
0.0
 11
14.0
 21
-8.0
 31
0.0
  0
LINE
  5
57
330
53
100
AcDbEntity
  8
0
100
AcDbLine
 10
14.0
 20
-8.0
 30
0.0
 11
14.0
 21
8.0
 31
0.0
  0
LINE
  5
58
330
53
100
AcDbEntity
  8
0
100
AcDbLine
 10
14.0
 20
8.0
 30
0.0
 11
-14.0
 21
8.0
 31
0.0
  0
LINE
  5
59
330
53
100
AcDbEntity
  8
0
100
AcDbLine
 10
-14.0
 20
8.0
 30
0.0
 11
-14.0
 21
-8.0
 31
0.0
  0
LINE
  5
5A
330
53
100
AcDbEntity
  8
0
100
AcDbLine
 10
-14.0
 20
-8.0
 30
0.0
 11
14.0
 21
8.0
 31
0.0
  0
LINE
  5
5B
330
53
100
AcDbEntity
  8
0
100
AcDbLine
 10
-14.0
 20
8.0
 30
0.0
 11
14.0
 21
-8.0
 31
0.0
  0
ENDBLK
  5
55
330
53
100
AcDbEntity
  8
0
100
AcDbBlockEnd
  0
BLOCK
  5
5D
330
5C
100
AcDbEntity
  8
0
100
AcDbBlockBegin
  2
ISA_ULTRASONIC
 70
0
 10
0.0
 20
0.0
 30
0.0
  3
ISA_ULTRASONIC
  1

  0
LINE
  5
5F
330
5C
100
AcDbEntity
  8
0
100
AcDbLine
 10
-16.0
 20
-10.0
 30
0.0
 11
16.0
 21
-10.0
 31
0.0
  0
LINE
  5
60
330
5C
100
AcDbEntity
  8
0
100
AcDbLine
 10
16.0
 20
-10.0
 30
0.0
 11
16.0
 21
10.0
 31
0.0
  0
LINE
  5
61
330
5C
100
AcDbEntity
  8
0
100
AcDbLine
 10
16.0
 20
10.0
 30
0.0
 11
-16.0
 21
10.0
 31
0.0
  0
LINE
  5
62
330
5C
100
AcDbEntity
  8
0
100
AcDbLine
 10
-16.0
 20
10.0
 30
0.0
 11
-16.0
 21
-10.0
 31
0.0
  0
LINE
  5
63
330
5C
100
AcDbEntity
  8
0
100
AcDbLine
 10
-12.0
 20
-8.0
 30
0.0
 11
4.0
 21
8.0
 31
0.0
  0
LINE
  5
64
330
5C
100
AcDbEntity
  8
0
100
AcDbLine
 10
-4.0
 20
-8.0
 30
0.0
 11
12.0
 21
8.0
 31
0.0
  0
TEXT
  5
65
330
5C
100
AcDbEntity
  8
0
100
AcDbText
 10
0.0
 20
0.0
 30
0.0
 40
5.0
  1
US
 72
1
 11
0.0
 21
0.0
 31
0.0
100
AcDbText
 73
2
  0
ENDBLK
  5
5E
330
5C
100
AcDbEntity
  8
0
100
AcDbBlockEnd
  0
BLOCK
  5
67
330
66
100
AcDbEntity
  8
0
100
AcDbBlockBegin
  2
ISA_TURBINE
 70
0
 10
0.0
 20
0.0
 30
0.0
  3
ISA_TURBINE
  1

  0
CIRCLE
  5
69
330
66
100
AcDbEntity
  8
0
100
AcDbCircle
 10
0.0
 20
0.0
 30
0.0
 40
11.0
  0
ARC
  5
6A
330
66
100
AcDbEntity
  8
0
100
AcDbCircle
 10
0.0
 20
0.0
 30
0.0
 40
6.0
100
AcDbArc
 50
45.0
 51
135.0
  0
ARC
  5
6B
330
66
100
AcDbEntity
  8
0
100
AcDbCircle
 10
0.0
 20
0.0
 30
0.0
 40
6.0
100
AcDbArc
 50
225.0
 51
315.0
  0
LINE
  5
6C
330
66
100
AcDbEntity
  8
0
100
AcDbLine
 10
-11.0
 20
0.0
 30
0.0
 11
11.0
 21
0.0
 31
0.0
  0
TEXT
  5
6D
330
66
100
AcDbEntity
  8
0
100
AcDbText
 10
0.0
 20
-1.0
 30
0.0
 40
5.0
  1
T
 72
1
 11
0.0
 21
-1.0
 31
0.0
100
AcDbText
 73
2
  0
ENDBLK
  5
68
330
66
100
AcDbEntity
  8
0
100
AcDbBlockEnd
  0
BLOCK
  5
6F
330
6E
100
AcDbEntity
  8
0
100
AcDbBlockBegin
  2
ISA_CORIOLIS
 70
0
 10
0.0
 20
0.0
 30
0.0
  3
ISA_CORIOLIS
  1

  0
CIRCLE
  5
71
330
6E
100
AcDbEntity
  8
0
100
AcDbCircle
 10
0.0
 20
5.0
 30
0.0
 40
5.0
  0
CIRCLE
  5
72
330
6E
100
AcDbEntity
  8
0
100
AcDbCircle
 10
0.0
 20
-5.0
 30
0.0
 40
5.0
  0
TEXT
  5
73
330
6E
100
AcDbEntity
  8
0
100
AcDbText
 10
0.0
 20
0.0
 30
0.0
 40
3.5
  1
CO
 72
1
 11
0.0
 21
0.0
 31
0.0
100
AcDbText
 73
2
  0
ENDBLK
  5
70
330
6E
100
AcDbEntity
  8
0
100
AcDbBlockEnd
  0
BLOCK
  5
75
330
74
100
AcDbEntity
  8
0
100
AcDbBlockBegin
  2
ISA_BUBBLE
 70
2
 10
0.0
 20
0.0
 30
0.0
  3
ISA_BUBBLE
  1

  0
CIRCLE
  5
77
330
74
100
AcDbEntity
  8
0
100
AcDbCircle
 10
0.0
 20
0.0
 30
0.0
 40
8.0
  0
LINE
  5
78
330
74
100
AcDbEntity
  8
0
100
AcDbLine
 10
-8.0
 20
0.0
 30
0.0
 11
8.0
 21
0.0
 31
0.0
  0
ATTDEF
  5
79
330
74
100
AcDbEntity
  8
0
100
AcDbText
 10
0.0
 20
3.5
 30
0.0
 40
2.5
  1

 72
1
 11
0.0
 21
3.5
 31
0.0
100
AcDbAttributeDefinition
  3
Tag superior
  2
TAG_TOP
 70
0
 74
2
  0
ATTDEF
  5
7A
330
74
100
AcDbEntity
  8
0
100
AcDbText
 10
0.0
 20
-3.0
 30
0.0
 40
2.0
  1

 72
1
 11
0.0
 21
-3.0
 31
0.0
100
AcDbAttributeDefinition
  3
Tag inferior
  2
TAG_BOT
 70
0
 74
2
  0
ENDBLK
  5
76
330
74
100
AcDbEntity
  8
0
100
AcDbBlockEnd
  0
BLOCK
  5
144
330
143
100
AcDbEntity
  8
0
100
AcDbBlockBegin
  2
*U1
 70
1
 10
0.0
 20
0.0
 30
0.0
  3
*U1
  1

  0
INSERT
  5
146
330
143
100
AcDbEntity
  8
0
100
AcDbBlockReference
 66
1
  2
ISA_BUBBLE
 10
0.0
 20
0.0
 30
0.0
  0
ATTRIB
  5
148
330
143
100
AcDbEntity
  8
0
100
AcDbText
 10
0.0
 20
3.5
 30
0.0
 40
2.5
  1
PT
 72
1
 11
0.0
 21
3.5
 31
0.0
100
AcDbAttribute
  2
TAG_TOP
 70
0
 74
2
  0
ATTRIB
  5
149
330
143
100
AcDbEntity
  8
0
100
AcDbText
 10
0.0
 20
-3.0
 30
0.0
 40
2.0
  1
101
 72
1
 11
0.0
 21
-3.0
 31
0.0
100
AcDbAttribute
  2
TAG_BOT
 70
0
 74
2
  0
SEQEND
  5
147
330
146
100
AcDbEntity
  8
0
  0
ENDBLK
  5
145
330
143
100
AcDbEntity
  8
0
100
AcDbBlockEnd
  0
BLOCK
  5
14F
330
14E
100
AcDbEntity
  8
0
100
AcDbBlockBegin
  2
*U2
 70
1
 10
0.0
 20
0.0
 30
0.0
  3
*U2
  1

  0
INSERT
  5
151
330
14E
100
AcDbEntity
  8
0
100
AcDbBlockReference
 66
1
  2
ISA_BUBBLE
 10
0.0
 20
0.0
 30
0.0
  0
ATTRIB
  5
153
330
14E
100
AcDbEntity
  8
0
100
AcDbText
 10
0.0
 20
3.5
 30
0.0
 40
2.5
  1
TT
 72
1
 11
0.0
 21
3.5
 31
0.0
100
AcDbAttribute
  2
TAG_TOP
 70
0
 74
2
  0
ATTRIB
  5
154
330
14E
100
AcDbEntity
  8
0
100
AcDbText
 10
0.0
 20
-3.0
 30
0.0
 40
2.0
  1
101
 72
1
 11
0.0
 21
-3.0
 31
0.0
100
AcDbAttribute
  2
TAG_BOT
 70
0
 74
2
  0
SEQEND
  5
152
330
151
100
AcDbEntity
  8
0
  0
ENDBLK
  5
150
330
14E
100
AcDbEntity
  8
0
100
AcDbBlockEnd
  0
BLOCK
  5
15A
330
159
100
AcDbEntity
  8
0
100
AcDbBlockBegin
  2
*U3
 70
1
 10
0.0
 20
0.0
 30
0.0
  3
*U3
  1

  0
INSERT
  5
15C
330
159
100
AcDbEntity
  8
0
100
AcDbBlockReference
 66
1
  2
ISA_BUBBLE
 10
0.0
 20
0.0
 30
0.0
  0
ATTRIB
  5
15E
330
159
100
AcDbEntity
  8
0
100
AcDbText
 10
0.0
 20
3.5
 30
0.0
 40
2.5
  1
FT
 72
1
 11
0.0
 21
3.5
 31
0.0
100
AcDbAttribute
  2
TAG_TOP
 70
0
 74
2
  0
ATTRIB
  5
15F
330
159
100
AcDbEntity
  8
0
100
AcDbText
 10
0.0
 20
-3.0
 30
0.0
 40
2.0
  1
100
 72
1
 11
0.0
 21
-3.0
 31
0.0
100
AcDbAttribute
  2
TAG_BOT
 70
0
 74
2
  0
SEQEND
  5
15D
330
15C
100
AcDbEntity
  8
0
  0
ENDBLK
  5
15B
330
159
100
AcDbEntity
  8
0
100
AcDbBlockEnd
  0
BLOCK
  5
165
330
164
100
AcDbEntity
  8
0
100
AcDbBlockBegin
  2
*U4
 70
1
 10
0.0
 20
0.0
 30
0.0
  3
*U4
  1

  0
INSERT
  5
167
330
164
100
AcDbEntity
  8
0
100
AcDbBlockReference
 66
1
  2
ISA_BUBBLE
 10
0.0
 20
0.0
 30
0.0
  0
ATTRIB
  5
169
330
164
100
AcDbEntity
  8
0
100
AcDbText
 10
0.0
 20
3.5
 30
0.0
 40
2.5
  1
PT
 72
1
 11
0.0
 21
3.5
 31
0.0
100
AcDbAttribute
  2
TAG_TOP
 70
0
 74
2
  0
ATTRIB
  5
16A
330
164
100
AcDbEntity
  8
0
100
AcDbText
 10
0.0
 20
-3.0
 30
0.0
 40
2.0
  1
102
 72
1
 11
0.0
 21
-3.0
 31
0.0
100
AcDbAttribute
  2
TAG_BOT
 70
0
 74
2
  0
SEQEND
  5
168
330
167
100
AcDbEntity
  8
0
  0
ENDBLK
  5
166
330
164
100
AcDbEntity
  8
0
100
AcDbBlockEnd
  0
BLOCK
  5
17A
330
179
100
AcDbEntity
  8
0
100
AcDbBlockBegin
  2
*D5
 70
1
 10
0.0
 20
0.0
 30
0.0
  3
*D5
  1

  0
LINE
  5
17C
330
179
100
AcDbEntity
  8
0
100
AcDbLine
 10
171.0
 20
407.0
 30
0.0
 11
171.0
 21
431.0
 31
0.0
  0
LINE
  5
17D
330
179
100
AcDbEntity
  8
0
100
AcDbLine
 10
347.0
 20
407.0
 30
0.0
 11
347.0
 21
431.0
 31
0.0
  0
INSERT
  5
182
330
179
100
AcDbEntity
  8
0
100
AcDbBlockReference
  2
_CLOSEDFILLED
 10
171.0
 20
431.0
 30
0.0
 41
3.0
 42
3.0
 50
180.0
  0
INSERT
  5
184
330
179
100
AcDbEntity
  8
0
100
AcDbBlockReference
  2
_CLOSEDFILLED
 10
347.0
 20
431.0
 30
0.0
 41
3.0
 42
3.0
  0
LINE
  5
186
330
179
100
AcDbEntity
  8
0
100
AcDbLine
 10
174.0
 20
431.0
 30
0.0
 11
255.25
 21
431.0
 31
0.0
  0
LINE
  5
187
330
179
100
AcDbEntity
  8
0
100
AcDbLine
 10
262.75
 20
431.0
 30
0.0
 11
344.0
 21
431.0
 31
0.0
  0
MTEXT
  5
188
330
179
100
AcDbEntity
  8
0
100
AcDbMText
 10
259.0
 20
431.0
 30
0.0
 40
2.5
 71
5
  1
176
  0
POINT
  5
189
330
179
100
AcDbEntity
  8
Defpoints
100
AcDbPoint
 10
171.0
 20
431.0
 30
0.0
  0
POINT
  5
18A
330
179
100
AcDbEntity
  8
Defpoints
100
AcDbPoint
 10
171.0
 20
407.0
 30
0.0
  0
POINT
  5
18B
330
179
100
AcDbEntity
  8
Defpoints
100
AcDbPoint
 10
347.0
 20
407.0
 30
0.0
  0
ENDBLK
  5
17B
330
179
100
AcDbEntity
  8
0
100
AcDbBlockEnd
  0
BLOCK
  5
17F
330
17E
100
AcDbEntity
  8
0
100
AcDbBlockBegin
  2
_CLOSEDFILLED
 70
0
 10
0.0
 20
0.0
 30
0.0
  3
_CLOSEDFILLED
  1

  0
SOLID
  5
181
330
17E
100
AcDbEntity
  8
0
  6
BYBLOCK
 62
0
100
AcDbTrace
 10
-1.0
 20
0.16439898372402537
 30
0.0
 11
0.0
 21
0.0
 31
0.0
 12
-1.0
 22
-0.16439898372402537
 32
0.0
 13
-1.0
 23
-0.16439898372402537
 33
0.0
  0
ENDBLK
  5
180
330
17E
100
AcDbEntity
  8
0
100
AcDbBlockEnd
  0
ENDSEC
  0
SECTION
  2
ENTITIES
  0
LINE
  5
7B
330
17
100
AcDbEntity
  8
BORDE
100
AcDbLine
 10
5.0
 20
5.0
 30
0.0
 11
836.0
 21
5.0
 31
0.0
  0
LINE
  5
7C
330
17
100
AcDbEntity
  8
BORDE
100
AcDbLine
 10
836.0
 20
5.0
 30
0.0
 11
836.0
 21
589.0
 31
0.0
  0
LINE
  5
7D
330
17
100
AcDbEntity
  8
BORDE
100
AcDbLine
 10
836.0
 20
589.0
 30
0.0
 11
5.0
 21
589.0
 31
0.0
  0
LINE
  5
7E
330
17
100
AcDbEntity
  8
BORDE
100
AcDbLine
 10
5.0
 20
589.0
 30
0.0
 11
5.0
 21
5.0
 31
0.0
  0
LINE
  5
7F
330
17
100
AcDbEntity
  8
BORDE
100
AcDbLine
 10
641.0
 20
5.0
 30
0.0
 11
641.0
 21
589.0
 31
0.0
  0
LINE
  5
80
330
17
100
AcDbEntity
  8
TITULO
100
AcDbLine
 10
641.0
 20
5.0
 30
0.0
 11
836.0
 21
5.0
 31
0.0
  0
LINE
  5
81
330
17
100
AcDbEntity
  8
TITULO
100
AcDbLine
 10
836.0
 20
5.0
 30
0.0
 11
836.0
 21
589.0
 31
0.0
  0
LINE
  5
82
330
17
100
AcDbEntity
  8
TITULO
100
AcDbLine
 10
836.0
 20
589.0
 30
0.0
 11
641.0
 21
589.0
 31
0.0
  0
LINE
  5
83
330
17
100
AcDbEntity
  8
TITULO
100
AcDbLine
 10
641.0
 20
589.0
 30
0.0
 11
641.0
 21
5.0
 31
0.0
  0
LINE
  5
84
330
17
100
AcDbEntity
  8
TITULO
100
AcDbLine
 10
641.0
 20
60.0
 30
0.0
 11
836.0
 21
60.0
 31
0.0
  0
LINE
  5
85
330
17
100
AcDbEntity
  8
TITULO
100
AcDbLine
 10
641.0
 20
125.0
 30
0.0
 11
836.0
 21
125.0
 31
0.0
  0
LINE
  5
86
330
17
100
AcDbEntity
  8
TITULO
100
AcDbLine
 10
641.0
 20
155.0
 30
0.0
 11
836.0
 21
155.0
 31
0.0
  0
LINE
  5
87
330
17
100
AcDbEntity
  8
TITULO
100
AcDbLine
 10
641.0
 20
185.0
 30
0.0
 11
836.0
 21
185.0
 31
0.0
  0
LINE
  5
88
330
17
100
AcDbEntity
  8
TITULO
100
AcDbLine
 10
641.0
 20
215.0
 30
0.0
 11
836.0
 21
215.0
 31
0.0
  0
LINE
  5
89
330
17
100
AcDbEntity
  8
TITULO
100
AcDbLine
 10
641.0
 20
265.0
 30
0.0
 11
836.0
 21
265.0
 31
0.0
  0
LINE
  5
8A
330
17
100
AcDbEntity
  8
TITULO
100
AcDbLine
 10
641.0
 20
305.0
 30
0.0
 11
836.0
 21
305.0
 31
0.0
  0
LINE
  5
8B
330
17
100
AcDbEntity
  8
TITULO
100
AcDbLine
 10
641.0
 20
345.0
 30
0.0
 11
836.0
 21
345.0
 31
0.0
  0
LINE
  5
8C
330
17
100
AcDbEntity
  8
TITULO
100
AcDbLine
 10
641.0
 20
385.0
 30
0.0
 11
836.0
 21
385.0
 31
0.0
  0
LINE
  5
8D
330
17
100
AcDbEntity
  8
TITULO
100
AcDbLine
 10
641.0
 20
435.0
 30
0.0
 11
836.0
 21
435.0
 31
0.0
  0
LINE
  5
8E
330
17
100
AcDbEntity
  8
TITULO
100
AcDbLine
 10
641.0
 20
475.0
 30
0.0
 11
836.0
 21
475.0
 31
0.0
  0
LINE
  5
8F
330
17
100
AcDbEntity
  8
TITULO
100
AcDbLine
 10
641.0
 20
515.0
 30
0.0
 11
836.0
 21
515.0
 31
0.0
  0
LINE
  5
90
330
17
100
AcDbEntity
  8
TITULO
100
AcDbLine
 10
641.0
 20
555.0
 30
0.0
 11
836.0
 21
555.0
 31
0.0
  0
TEXT
  5
91
330
17
100
AcDbEntity
  8
TITULO
100
AcDbText
 10
738.5
 20
569.0
 30
0.0
 40
7.0
  1
PEREGRIN
 72
1
 11
738.5
 21
569.0
 31
0.0
100
AcDbText
 73
2
  0
TEXT
  5
92
330
17
100
AcDbEntity
  8
ANOTACIONES
100
AcDbText
 10
646.0
 20
549.0
 30
0.0
 40
2.5
  1
PROYECTO
 11
646.0
 21
549.0
 31
0.0
100
AcDbText
  0
TEXT
  5
93
330
17
100
AcDbEntity
  8
TITULO
100
AcDbText
 10
646.0
 20
537.0
 30
0.0
 40
3.5
  1
TEST
 11
646.0
 21
537.0
 31
0.0
100
AcDbText
  0
TEXT
  5
94
330
17
100
AcDbEntity
  8
ANOTACIONES
100
AcDbText
 10
646.0
 20
509.0
 30
0.0
 40
2.5
  1
CLIENTE
 11
646.0
 21
509.0
 31
0.0
100
AcDbText
  0
TEXT
  5
95
330
17
100
AcDbEntity
  8
TITULO
100
AcDbText
 10
646.0
 20
497.0
 30
0.0
 40
3.5
  1
Cliente SA
 11
646.0
 21
497.0
 31
0.0
100
AcDbText
  0
TEXT
  5
96
330
17
100
AcDbEntity
  8
ANOTACIONES
100
AcDbText
 10
646.0
 20
469.0
 30
0.0
 40
2.5
  1
TIPO DE PUNTO
 11
646.0
 21
469.0
 31
0.0
100
AcDbText
  0
TEXT
  5
97
330
17
100
AcDbEntity
  8
TITULO
100
AcDbText
 10
646.0
 20
457.0
 30
0.0
 40
3.0
  1
City Gate
 11
646.0
 21
457.0
 31
0.0
100
AcDbText
  0
TEXT
  5
98
330
17
100
AcDbEntity
  8
ANOTACIONES
100
AcDbText
 10
646.0
 20
429.0
 30
0.0
 40
2.5
  1
TECNOLOGIA DE MEDICION
 11
646.0
 21
429.0
 31
0.0
100
AcDbText
  0
TEXT
  5
99
330
17
100
AcDbEntity
  8
TITULO
100
AcDbText
 10
646.0
 20
417.0
 30
0.0
 40
3.0
  1
Ultrasonico
 11
646.0
 21
417.0
 31
0.0
100
AcDbText
  0
TEXT
  5
9A
330
17
100
AcDbEntity
  8
ANOTACIONES
100
AcDbText
 10
646.0
 20
405.0
 30
0.0
 40
2.5
  1
Ref: AGA 9
 11
646.0
 21
405.0
 31
0.0
100
AcDbText
  0
TEXT
  5
9B
330
17
100
AcDbEntity
  8
ANOTACIONES
100
AcDbText
 10
646.0
 20
379.0
 30
0.0
 40
2.5
  1
NORMA PRINCIPAL
 11
646.0
 21
379.0
 31
0.0
100
AcDbText
  0
TEXT
  5
9C
330
17
100
AcDbEntity
  8
TITULO
100
AcDbText
 10
646.0
 20
367.0
 30
0.0
 40
3.5
  1
NOM-020-ASEA-2024
 11
646.0
 21
367.0
 31
0.0
100
AcDbText
  0
TEXT
  5
9D
330
17
100
AcDbEntity
  8
ANOTACIONES
100
AcDbText
 10
646.0
 20
339.0
 30
0.0
 40
2.5
  1
CUSTODIA FISCAL
 11
646.0
 21
339.0
 31
0.0
100
AcDbText
  0
TEXT
  5
9E
330
17
100
AcDbEntity
  8
TITULO
100
AcDbText
 10
646.0
 20
327.0
 30
0.0
 40
5.0
  1
SI
 11
646.0
 21
327.0
 31
0.0
100
AcDbText
  0
TEXT
  5
9F
330
17
100
AcDbEntity
  8
ANOTACIONES
100
AcDbText
 10
646.0
 20
299.0
 30
0.0
 40
2.5
  1
NUM. DE PLANO
 11
646.0
 21
299.0
 31
0.0
100
AcDbText
  0
TEXT
  5
A0
330
17
100
AcDbEntity
  8
TITULO
100
AcDbText
 10
646.0
 20
287.0
 30
0.0
 40
3.0
  1
PER-PID-001
 11
646.0
 21
287.0
 31
0.0
100
AcDbText
  0
TEXT
  5
A1
330
17
100
AcDbEntity
  8
ANOTACIONES
100
AcDbText
 10
646.0
 20
259.0
 30
0.0
 40
2.5
  1
REVISION
 11
646.0
 21
259.0
 31
0.0
100
AcDbText
  0
TEXT
  5
A2
330
17
100
AcDbEntity
  8
TITULO
100
AcDbText
 10
646.0
 20
247.0
 30
0.0
 40
6.0
  1
0
 11
646.0
 21
247.0
 31
0.0
100
AcDbText
  0
TEXT
  5
A3
330
17
100
AcDbEntity
  8
ANOTACIONES
100
AcDbText
 10
646.0
 20
209.0
 30
0.0
 40
2.5
  1
FECHA
 11
646.0
 21
209.0
 31
0.0
100
AcDbText
  0
TEXT
  5
A4
330
17
100
AcDbEntity
  8
TITULO
100
AcDbText
 10
646.0
 20
197.0
 30
0.0
 40
3.0
  1
24-JUN-2026
 11
646.0
 21
197.0
 31
0.0
100
AcDbText
  0
TEXT
  5
A5
330
17
100
AcDbEntity
  8
ANOTACIONES
100
AcDbText
 10
646.0
 20
179.0
 30
0.0
 40
2.5
  1
ESCALA
 11
646.0
 21
179.0
 31
0.0
100
AcDbText
  0
TEXT
  5
A6
330
17
100
AcDbEntity
  8
TITULO
100
AcDbText
 10
646.0
 20
167.0
 30
0.0
 40
3.0
  1
SIN ESCALA
 11
646.0
 21
167.0
 31
0.0
100
AcDbText
  0
TEXT
  5
A7
330
17
100
AcDbEntity
  8
ANOTACIONES
100
AcDbText
 10
646.0
 20
149.0
 30
0.0
 40
2.5
  1
FORMATO
 11
646.0
 21
149.0
 31
0.0
100
AcDbText
  0
TEXT
  5
A8
330
17
100
AcDbEntity
  8
TITULO
100
AcDbText
 10
646.0
 20
137.0
 30
0.0
 40
3.0
  1
A1 HORIZONTAL
 11
646.0
 21
137.0
 31
0.0
100
AcDbText
  0
LINE
  5
A9
330
17
100
AcDbEntity
  8
TITULO
100
AcDbLine
 10
706.0
 20
60.0
 30
0.0
 11
706.0
 21
125.0
 31
0.0
  0
LINE
  5
AA
330
17
100
AcDbEntity
  8
TITULO
100
AcDbLine
 10
771.0
 20
60.0
 30
0.0
 11
771.0
 21
125.0
 31
0.0
  0
TEXT
  5
AB
330
17
100
AcDbEntity
  8
ANOTACIONES
100
AcDbText
 10
673.5
 20
119.0
 30
0.0
 40
2.5
  1
ELABORO
 72
1
 11
673.5
 21
119.0
 31
0.0
100
AcDbText
 73
2
  0
LINE
  5
AC
330
17
100
AcDbEntity
  8
ANOTACIONES
100
AcDbLine
 10
646.0
 20
80.0
 30
0.0
 11
701.0
 21
80.0
 31
0.0
  0
TEXT
  5
AD
330
17
100
AcDbEntity
  8
ANOTACIONES
100
AcDbText
 10
673.5
 20
72.0
 30
0.0
 40
2.0
  1
Nombre / Cedula
 72
1
 11
673.5
 21
72.0
 31
0.0
100
AcDbText
 73
2
  0
TEXT
  5
AE
330
17
100
AcDbEntity
  8
ANOTACIONES
100
AcDbText
 10
738.5
 20
119.0
 30
0.0
 40
2.5
  1
REVISO
 72
1
 11
738.5
 21
119.0
 31
0.0
100
AcDbText
 73
2
  0
LINE
  5
AF
330
17
100
AcDbEntity
  8
ANOTACIONES
100
AcDbLine
 10
711.0
 20
80.0
 30
0.0
 11
766.0
 21
80.0
 31
0.0
  0
TEXT
  5
B0
330
17
100
AcDbEntity
  8
ANOTACIONES
100
AcDbText
 10
738.5
 20
72.0
 30
0.0
 40
2.0
  1
Nombre / Cedula
 72
1
 11
738.5
 21
72.0
 31
0.0
100
AcDbText
 73
2
  0
TEXT
  5
B1
330
17
100
AcDbEntity
  8
ANOTACIONES
100
AcDbText
 10
803.5
 20
119.0
 30
0.0
 40
2.5
  1
AUTORIZO
 72
1
 11
803.5
 21
119.0
 31
0.0
100
AcDbText
 73
2
  0
LINE
  5
B2
330
17
100
AcDbEntity
  8
ANOTACIONES
100
AcDbLine
 10
776.0
 20
80.0
 30
0.0
 11
831.0
 21
80.0
 31
0.0
  0
TEXT
  5
B3
330
17
100
AcDbEntity
  8
ANOTACIONES
100
AcDbText
 10
803.5
 20
72.0
 30
0.0
 40
2.0
  1
Nombre / Cedula
 72
1
 11
803.5
 21
72.0
 31
0.0
100
AcDbText
 73
2
  0
TEXT
  5
B4
330
17
100
AcDbEntity
  8
ANOTACIONES
100
AcDbText
 10
646.0
 20
51.0
 30
0.0
 40
2.0
  1
BORRADOR - NO VALIDO PARA CONSTRUCCION
 11
646.0
 21
51.0
 31
0.0
100
AcDbText
  0
TEXT
  5
B5
330
17
100
AcDbEntity
  8
ANOTACIONES
100
AcDbText
 10
646.0
 20
41.0
 30
0.0
 40
2.0
  1
Requiere firma de ing. responsable.
 11
646.0
 21
41.0
 31
0.0
100
AcDbText
  0
TEXT
  5
B6
330
17
100
AcDbEntity
  8
ANOTACIONES
100
AcDbText
 10
646.0
 20
31.0
 30
0.0
 40
2.0
  1
No emite dictamen de UV.
 11
646.0
 21
31.0
 31
0.0
100
AcDbText
  0
TEXT
  5
B7
330
17
100
AcDbEntity
  8
ANOTACIONES
100
AcDbText
 10
646.0
 20
21.0
 30
0.0
 40
2.0
  1
PEREGRIN Prototipo / 24-JUN-2026
 11
646.0
 21
21.0
 31
0.0
100
AcDbText
  0
LINE
  5
B8
330
17
100
AcDbEntity
  8
TAGLIST
100
AcDbLine
 10
10.0
 20
10.0
 30
0.0
 11
636.0
 21
10.0
 31
0.0
  0
LINE
  5
B9
330
17
100
AcDbEntity
  8
TAGLIST
100
AcDbLine
 10
636.0
 20
10.0
 30
0.0
 11
636.0
 21
120.0
 31
0.0
  0
LINE
  5
BA
330
17
100
AcDbEntity
  8
TAGLIST
100
AcDbLine
 10
636.0
 20
120.0
 30
0.0
 11
10.0
 21
120.0
 31
0.0
  0
LINE
  5
BB
330
17
100
AcDbEntity
  8
TAGLIST
100
AcDbLine
 10
10.0
 20
120.0
 30
0.0
 11
10.0
 21
10.0
 31
0.0
  0
LINE
  5
BC
330
17
100
AcDbEntity
  8
TAGLIST
100
AcDbLine
 10
10.0
 20
108.0
 30
0.0
 11
636.0
 21
108.0
 31
0.0
  0
TEXT
  5
BD
330
17
100
AcDbEntity
  8
TAGLIST
100
AcDbText
 10
15.0
 20
111.0
 30
0.0
 40
4.0
  1
LISTA DE INSTRUMENTOS (TAG LIST)
 11
15.0
 21
111.0
 31
0.0
100
AcDbText
  0
LINE
  5
BE
330
17
100
AcDbEntity
  8
TAGLIST
100
AcDbLine
 10
72.6
 20
10.0
 30
0.0
 11
72.6
 21
108.0
 31
0.0
  0
LINE
  5
BF
330
17
100
AcDbEntity
  8
TAGLIST
100
AcDbLine
 10
197.8
 20
10.0
 30
0.0
 11
197.8
 21
108.0
 31
0.0
  0
LINE
  5
C0
330
17
100
AcDbEntity
  8
TAGLIST
100
AcDbLine
 10
385.6
 20
10.0
 30
0.0
 11
385.6
 21
108.0
 31
0.0
  0
LINE
  5
C1
330
17
100
AcDbEntity
  8
TAGLIST
100
AcDbLine
 10
542.1
 20
10.0
 30
0.0
 11
542.1
 21
108.0
 31
0.0
  0
LINE
  5
C2
330
17
100
AcDbEntity
  8
TAGLIST
100
AcDbLine
 10
10.0
 20
98.0
 30
0.0
 11
636.0
 21
98.0
 31
0.0
  0
TEXT
  5
C3
330
17
100
AcDbEntity
  8
TAGLIST
100
AcDbText
 10
12.0
 20
101.0
 30
0.0
 40
3.0
  1
TAG
 11
12.0
 21
101.0
 31
0.0
100
AcDbText
  0
TEXT
  5
C4
330
17
100
AcDbEntity
  8
TAGLIST
100
AcDbText
 10
74.6
 20
101.0
 30
0.0
 40
3.0
  1
TIPO
 11
74.6
 21
101.0
 31
0.0
100
AcDbText
  0
TEXT
  5
C5
330
17
100
AcDbEntity
  8
TAGLIST
100
AcDbText
 10
199.8
 20
101.0
 30
0.0
 40
3.0
  1
SERVICIO
 11
199.8
 21
101.0
 31
0.0
100
AcDbText
  0
TEXT
  5
C6
330
17
100
AcDbEntity
  8
TAGLIST
100
AcDbText
 10
387.6
 20
101.0
 30
0.0
 40
3.0
  1
RANGO/ESCALA
 11
387.6
 21
101.0
 31
0.0
100
AcDbText
  0
TEXT
  5
C7
330
17
100
AcDbEntity
  8
TAGLIST
100
AcDbText
 10
544.1
 20
101.0
 30
0.0
 40
3.0
  1
NORMA
 11
544.1
 21
101.0
 31
0.0
100
AcDbText
  0
LINE
  5
C8
330
17
100
AcDbEntity
  8
ANOTACIONES
100
AcDbLine
 10
10.0
 20
98.0
 30
0.0
 11
636.0
 21
98.0
 31
0.0
  0
TEXT
  5
C9
330
17
100
AcDbEntity
  8
ANOTACIONES
100
AcDbText
 10
12.0
 20
90.0
 30
0.0
 40
2.5
  1
PT-101
 11
12.0
 21
90.0
 31
0.0
100
AcDbText
  0
TEXT
  5
CA
330
17
100
AcDbEntity
  8
ANOTACIONES
100
AcDbText
 10
74.6
 20
90.0
 30
0.0
 40
2.5
  1
Transmisor presion
 11
74.6
 21
90.0
 31
0.0
100
AcDbText
  0
TEXT
  5
CB
330
17
100
AcDbEntity
  8
ANOTACIONES
100
AcDbText
 10
199.8
 20
90.0
 30
0.0
 40
2.5
  1
Presion entrada
 11
199.8
 21
90.0
 31
0.0
100
AcDbText
  0
TEXT
  5
CC
330
17
100
AcDbEntity
  8
ANOTACIONES
100
AcDbText
 10
387.6
 20
90.0
 30
0.0
 40
2.5
  1
0-50 kg/cm2
 11
387.6
 21
90.0
 31
0.0
100
AcDbText
  0
TEXT
  5
CD
330
17
100
AcDbEntity
  8
ANOTACIONES
100
AcDbText
 10
544.1
 20
90.0
 30
0.0
 40
2.5
  1
ANSI/ISA 51.1
 11
544.1
 21
90.0
 31
0.0
100
AcDbText
  0
LINE
  5
CE
330
17
100
AcDbEntity
  8
ANOTACIONES
100
AcDbLine
 10
10.0
 20
88.0
 30
0.0
 11
636.0
 21
88.0
 31
0.0
  0
TEXT
  5
CF
330
17
100
AcDbEntity
  8
ANOTACIONES
100
AcDbText
 10
12.0
 20
80.0
 30
0.0
 40
2.5
  1
TT-101
 11
12.0
 21
80.0
 31
0.0
100
AcDbText
  0
TEXT
  5
D0
330
17
100
AcDbEntity
  8
ANOTACIONES
100
AcDbText
 10
74.6
 20
80.0
 30
0.0
 40
2.5
  1
Transmisor temperatura
 11
74.6
 21
80.0
 31
0.0
100
AcDbText
  0
TEXT
  5
D1
330
17
100
AcDbEntity
  8
ANOTACIONES
100
AcDbText
 10
199.8
 20
80.0
 30
0.0
 40
2.5
  1
Temperatura entrada
 11
199.8
 21
80.0
 31
0.0
100
AcDbText
  0
TEXT
  5
D2
330
17
100
AcDbEntity
  8
ANOTACIONES
100
AcDbText
 10
387.6
 20
80.0
 30
0.0
 40
2.5
  1
-20 a +60 C
 11
387.6
 21
80.0
 31
0.0
100
AcDbText
  0
TEXT
  5
D3
330
17
100
AcDbEntity
  8
ANOTACIONES
100
AcDbText
 10
544.1
 20
80.0
 30
0.0
 40
2.5
  1
ISA TR20.00.01
 11
544.1
 21
80.0
 31
0.0
100
AcDbText
  0
LINE
  5
D4
330
17
100
AcDbEntity
  8
ANOTACIONES
100
AcDbLine
 10
10.0
 20
78.0
 30
0.0
 11
636.0
 21
78.0
 31
0.0
  0
TEXT
  5
D5
330
17
100
AcDbEntity
  8
ANOTACIONES
100
AcDbText
 10
12.0
 20
70.0
 30
0.0
 40
2.5
  1
FE-100
 11
12.0
 21
70.0
 31
0.0
100
AcDbText
  0
TEXT
  5
D6
330
17
100
AcDbEntity
  8
ANOTACIONES
100
AcDbText
 10
74.6
 20
70.0
 30
0.0
 40
2.5
  1
Elem.primario (Ultrasonic)
 11
74.6
 21
70.0
 31
0.0
100
AcDbText
  0
TEXT
  5
D7
330
17
100
AcDbEntity
  8
ANOTACIONES
100
AcDbText
 10
199.8
 20
70.0
 30
0.0
 40
2.5
  1
Medicion caudal
 11
199.8
 21
70.0
 31
0.0
100
AcDbText
  0
TEXT
  5
D8
330
17
100
AcDbEntity
  8
ANOTACIONES
100
AcDbText
 10
387.6
 20
70.0
 30
0.0
 40
2.5
  1
100-1000 m3/h
 11
387.6
 21
70.0
 31
0.0
100
AcDbText
  0
TEXT
  5
D9
330
17
100
AcDbEntity
  8
ANOTACIONES
100
AcDbText
 10
544.1
 20
70.0
 30
0.0
 40
2.5
  1
AGA 9
 11
544.1
 21
70.0
 31
0.0
100
AcDbText
  0
LINE
  5
DA
330
17
100
AcDbEntity
  8
ANOTACIONES
100
AcDbLine
 10
10.0
 20
68.0
 30
0.0
 11
636.0
 21
68.0
 31
0.0
  0
TEXT
  5
DB
330
17
100
AcDbEntity
  8
ANOTACIONES
100
AcDbText
 10
12.0
 20
60.0
 30
0.0
 40
2.5
  1
FT-100
 11
12.0
 21
60.0
 31
0.0
100
AcDbText
  0
TEXT
  5
DC
330
17
100
AcDbEntity
  8
ANOTACIONES
100
AcDbText
 10
74.6
 20
60.0
 30
0.0
 40
2.5
  1
Transmisor flujo
 11
74.6
 21
60.0
 31
0.0
100
AcDbText
  0
TEXT
  5
DD
330
17
100
AcDbEntity
  8
ANOTACIONES
100
AcDbText
 10
199.8
 20
60.0
 30
0.0
 40
2.5
  1
Seal elemento primario
 11
199.8
 21
60.0
 31
0.0
100
AcDbText
  0
TEXT
  5
DE
330
17
100
AcDbEntity
  8
ANOTACIONES
100
AcDbText
 10
387.6
 20
60.0
 30
0.0
 40
2.5
  1
100-1000 m3/h
 11
387.6
 21
60.0
 31
0.0
100
AcDbText
  0
TEXT
  5
DF
330
17
100
AcDbEntity
  8
ANOTACIONES
100
AcDbText
 10
544.1
 20
60.0
 30
0.0
 40
2.5
  1
AGA 9
 11
544.1
 21
60.0
 31
0.0
100
AcDbText
  0
LINE
  5
E0
330
17
100
AcDbEntity
  8
ANOTACIONES
100
AcDbLine
 10
10.0
 20
58.0
 30
0.0
 11
636.0
 21
58.0
 31
0.0
  0
TEXT
  5
E1
330
17
100
AcDbEntity
  8
ANOTACIONES
100
AcDbText
 10
12.0
 20
50.0
 30
0.0
 40
2.5
  1
PCV-100
 11
12.0
 21
50.0
 31
0.0
100
AcDbText
  0
TEXT
  5
E2
330
17
100
AcDbEntity
  8
ANOTACIONES
100
AcDbText
 10
74.6
 20
50.0
 30
0.0
 40
2.5
  1
Valvula reg. presion
 11
74.6
 21
50.0
 31
0.0
100
AcDbText
  0
TEXT
  5
E3
330
17
100
AcDbEntity
  8
ANOTACIONES
100
AcDbText
 10
199.8
 20
50.0
 30
0.0
 40
2.5
  1
Control presion salida
 11
199.8
 21
50.0
 31
0.0
100
AcDbText
  0
TEXT
  5
E4
330
17
100
AcDbEntity
  8
ANOTACIONES
100
AcDbText
 10
387.6
 20
50.0
 30
0.0
 40
2.5
  1
0-40 kg/cm2
 11
387.6
 21
50.0
 31
0.0
100
AcDbText
  0
TEXT
  5
E5
330
17
100
AcDbEntity
  8
ANOTACIONES
100
AcDbText
 10
544.1
 20
50.0
 30
0.0
 40
2.5
  1
ANSI B16.34
 11
544.1
 21
50.0
 31
0.0
100
AcDbText
  0
LINE
  5
E6
330
17
100
AcDbEntity
  8
ANOTACIONES
100
AcDbLine
 10
10.0
 20
48.0
 30
0.0
 11
636.0
 21
48.0
 31
0.0
  0
TEXT
  5
E7
330
17
100
AcDbEntity
  8
ANOTACIONES
100
AcDbText
 10
12.0
 20
40.0
 30
0.0
 40
2.5
  1
PT-102
 11
12.0
 21
40.0
 31
0.0
100
AcDbText
  0
TEXT
  5
E8
330
17
100
AcDbEntity
  8
ANOTACIONES
100
AcDbText
 10
74.6
 20
40.0
 30
0.0
 40
2.5
  1
Transmisor presion
 11
74.6
 21
40.0
 31
0.0
100
AcDbText
  0
TEXT
  5
E9
330
17
100
AcDbEntity
  8
ANOTACIONES
100
AcDbText
 10
199.8
 20
40.0
 30
0.0
 40
2.5
  1
Presion salida/baja
 11
199.8
 21
40.0
 31
0.0
100
AcDbText
  0
TEXT
  5
EA
330
17
100
AcDbEntity
  8
ANOTACIONES
100
AcDbText
 10
387.6
 20
40.0
 30
0.0
 40
2.5
  1
0-24 kg/cm2
 11
387.6
 21
40.0
 31
0.0
100
AcDbText
  0
TEXT
  5
EB
330
17
100
AcDbEntity
  8
ANOTACIONES
100
AcDbText
 10
544.1
 20
40.0
 30
0.0
 40
2.5
  1
ANSI/ISA 51.1
 11
544.1
 21
40.0
 31
0.0
100
AcDbText
  0
LINE
  5
EC
330
17
100
AcDbEntity
  8
ANOTACIONES
100
AcDbLine
 10
10.0
 20
38.0
 30
0.0
 11
636.0
 21
38.0
 31
0.0
  0
TEXT
  5
ED
330
17
100
AcDbEntity
  8
ANOTACIONES
100
AcDbText
 10
12.0
 20
30.0
 30
0.0
 40
2.5
  1
FQI-100
 11
12.0
 21
30.0
 31
0.0
100
AcDbText
  0
TEXT
  5
EE
330
17
100
AcDbEntity
  8
ANOTACIONES
100
AcDbText
 10
74.6
 20
30.0
 30
0.0
 40
2.5
  1
Computador de flujo
 11
74.6
 21
30.0
 31
0.0
100
AcDbText
  0
TEXT
  5
EF
330
17
100
AcDbEntity
  8
ANOTACIONES
100
AcDbText
 10
199.8
 20
30.0
 30
0.0
 40
2.5
  1
Calculo volumetrico
 11
199.8
 21
30.0
 31
0.0
100
AcDbText
  0
TEXT
  5
F0
330
17
100
AcDbEntity
  8
ANOTACIONES
100
AcDbText
 10
387.6
 20
30.0
 30
0.0
 40
2.5
  1
N/D
 11
387.6
 21
30.0
 31
0.0
100
AcDbText
  0
TEXT
  5
F1
330
17
100
AcDbEntity
  8
ANOTACIONES
100
AcDbText
 10
544.1
 20
30.0
 30
0.0
 40
2.5
  1
AGA 8 DETAIL
 11
544.1
 21
30.0
 31
0.0
100
AcDbText
  0
LINE
  5
F2
330
17
100
AcDbEntity
  8
ANOTACIONES
100
AcDbLine
 10
10.0
 20
28.0
 30
0.0
 11
636.0
 21
28.0
 31
0.0
  0
TEXT
  5
F3
330
17
100
AcDbEntity
  8
ANOTACIONES
100
AcDbText
 10
12.0
 20
20.0
 30
0.0
 40
2.5
  1
SEP-100
 11
12.0
 21
20.0
 31
0.0
100
AcDbText
  0
TEXT
  5
F4
330
17
100
AcDbEntity
  8
ANOTACIONES
100
AcDbText
 10
74.6
 20
20.0
 30
0.0
 40
2.5
  1
Separador/filtro
 11
74.6
 21
20.0
 31
0.0
100
AcDbText
  0
TEXT
  5
F5
330
17
100
AcDbEntity
  8
ANOTACIONES
100
AcDbText
 10
199.8
 20
20.0
 30
0.0
 40
2.5
  1
Remocion particulas
 11
199.8
 21
20.0
 31
0.0
100
AcDbText
  0
TEXT
  5
F6
330
17
100
AcDbEntity
  8
ANOTACIONES
100
AcDbText
 10
387.6
 20
20.0
 30
0.0
 40
2.5
  1
DN4 ASME
 11
387.6
 21
20.0
 31
0.0
100
AcDbText
  0
TEXT
  5
F7
330
17
100
AcDbEntity
  8
ANOTACIONES
100
AcDbText
 10
544.1
 20
20.0
 30
0.0
 40
2.5
  1
ASME VIII
 11
544.1
 21
20.0
 31
0.0
100
AcDbText
  0
LINE
  5
F8
330
17
100
AcDbEntity
  8
DATOS
100
AcDbLine
 10
10.0
 20
125.0
 30
0.0
 11
636.0
 21
125.0
 31
0.0
  0
LINE
  5
F9
330
17
100
AcDbEntity
  8
DATOS
100
AcDbLine
 10
636.0
 20
125.0
 30
0.0
 11
636.0
 21
225.0
 31
0.0
  0
LINE
  5
FA
330
17
100
AcDbEntity
  8
DATOS
100
AcDbLine
 10
636.0
 20
225.0
 30
0.0
 11
10.0
 21
225.0
 31
0.0
  0
LINE
  5
FB
330
17
100
AcDbEntity
  8
DATOS
100
AcDbLine
 10
10.0
 20
225.0
 30
0.0
 11
10.0
 21
125.0
 31
0.0
  0
LINE
  5
FC
330
17
100
AcDbEntity
  8
DATOS
100
AcDbLine
 10
10.0
 20
213.0
 30
0.0
 11
636.0
 21
213.0
 31
0.0
  0
TEXT
  5
FD
330
17
100
AcDbEntity
  8
DATOS
100
AcDbText
 10
15.0
 20
216.0
 30
0.0
 40
4.0
  1
CONDICIONES DE DISENO Y PROCESO
 11
15.0
 21
216.0
 31
0.0
100
AcDbText
  0
LINE
  5
FE
330
17
100
AcDbEntity
  8
DATOS
100
AcDbLine
 10
166.5
 20
125.0
 30
0.0
 11
166.5
 21
213.0
 31
0.0
  0
LINE
  5
FF
330
17
100
AcDbEntity
  8
DATOS
100
AcDbLine
 10
323.0
 20
125.0
 30
0.0
 11
323.0
 21
213.0
 31
0.0
  0
LINE
  5
100
330
17
100
AcDbEntity
  8
DATOS
100
AcDbLine
 10
479.5
 20
125.0
 30
0.0
 11
479.5
 21
213.0
 31
0.0
  0
TEXT
  5
101
330
17
100
AcDbEntity
  8
ANOTACIONES
100
AcDbText
 10
13.0
 20
204.0
 30
0.0
 40
2.5
  1
Qmin
 11
13.0
 21
204.0
 31
0.0
100
AcDbText
  0
TEXT
  5
102
330
17
100
AcDbEntity
  8
DATOS
100
AcDbText
 10
163.5
 20
204.0
 30
0.0
 40
2.5
  1
100 m3/h
 72
2
 11
163.5
 21
204.0
 31
0.0
100
AcDbText
 73
2
  0
TEXT
  5
103
330
17
100
AcDbEntity
  8
ANOTACIONES
100
AcDbText
 10
326.0
 20
204.0
 30
0.0
 40
2.5
  1
Presion operacion
 11
326.0
 21
204.0
 31
0.0
100
AcDbText
  0
TEXT
  5
104
330
17
100
AcDbEntity
  8
DATOS
100
AcDbText
 10
633.0
 20
204.0
 30
0.0
 40
2.5
  1
40 kg/cm2 (3923 kPa)
 72
2
 11
633.0
 21
204.0
 31
0.0
100
AcDbText
 73
2
  0
LINE
  5
105
330
17
100
AcDbEntity
  8
ANOTACIONES
100
AcDbLine
 10
10.0
 20
201.0
 30
0.0
 11
636.0
 21
201.0
 31
0.0
  0
TEXT
  5
106
330
17
100
AcDbEntity
  8
ANOTACIONES
100
AcDbText
 10
13.0
 20
190.0
 30
0.0
 40
2.5
  1
Qnorm
 11
13.0
 21
190.0
 31
0.0
100
AcDbText
  0
TEXT
  5
107
330
17
100
AcDbEntity
  8
DATOS
100
AcDbText
 10
163.5
 20
190.0
 30
0.0
 40
2.5
  1
500 m3/h
 72
2
 11
163.5
 21
190.0
 31
0.0
100
AcDbText
 73
2
  0
TEXT
  5
108
330
17
100
AcDbEntity
  8
ANOTACIONES
100
AcDbText
 10
326.0
 20
190.0
 30
0.0
 40
2.5
  1
Diametro nominal
 11
326.0
 21
190.0
 31
0.0
100
AcDbText
  0
TEXT
  5
109
330
17
100
AcDbEntity
  8
DATOS
100
AcDbText
 10
633.0
 20
190.0
 30
0.0
 40
2.5
  1
4" (DN102 mm)
 72
2
 11
633.0
 21
190.0
 31
0.0
100
AcDbText
 73
2
  0
LINE
  5
10A
330
17
100
AcDbEntity
  8
ANOTACIONES
100
AcDbLine
 10
10.0
 20
187.0
 30
0.0
 11
636.0
 21
187.0
 31
0.0
  0
TEXT
  5
10B
330
17
100
AcDbEntity
  8
ANOTACIONES
100
AcDbText
 10
13.0
 20
176.0
 30
0.0
 40
2.5
  1
Qmax
 11
13.0
 21
176.0
 31
0.0
100
AcDbText
  0
TEXT
  5
10C
330
17
100
AcDbEntity
  8
DATOS
100
AcDbText
 10
163.5
 20
176.0
 30
0.0
 40
2.5
  1
1000 m3/h
 72
2
 11
163.5
 21
176.0
 31
0.0
100
AcDbText
 73
2
  0
TEXT
  5
10D
330
17
100
AcDbEntity
  8
ANOTACIONES
100
AcDbText
 10
326.0
 20
176.0
 30
0.0
 40
2.5
  1
Grav. especifica (SG)
 11
326.0
 21
176.0
 31
0.0
100
AcDbText
  0
TEXT
  5
10E
330
17
100
AcDbEntity
  8
DATOS
100
AcDbText
 10
633.0
 20
176.0
 30
0.0
 40
2.5
  1
0.65
 72
2
 11
633.0
 21
176.0
 31
0.0
100
AcDbText
 73
2
  0
LINE
  5
10F
330
17
100
AcDbEntity
  8
ANOTACIONES
100
AcDbLine
 10
10.0
 20
173.0
 30
0.0
 11
636.0
 21
173.0
 31
0.0
  0
TEXT
  5
110
330
17
100
AcDbEntity
  8
ANOTACIONES
100
AcDbText
 10
13.0
 20
162.0
 30
0.0
 40
2.5
  1
Turndown
 11
13.0
 21
162.0
 31
0.0
100
AcDbText
  0
TEXT
  5
111
330
17
100
AcDbEntity
  8
DATOS
100
AcDbText
 10
163.5
 20
162.0
 30
0.0
 40
2.5
  1
10.0:1
 72
2
 11
163.5
 21
162.0
 31
0.0
100
AcDbText
 73
2
  0
TEXT
  5
112
330
17
100
AcDbEntity
  8
ANOTACIONES
100
AcDbText
 10
326.0
 20
162.0
 30
0.0
 40
2.5
  1
CO2 / N2 (% mol)
 11
326.0
 21
162.0
 31
0.0
100
AcDbText
  0
TEXT
  5
113
330
17
100
AcDbEntity
  8
DATOS
100
AcDbText
 10
633.0
 20
162.0
 30
0.0
 40
2.5
  1
1.5 / 0.8
 72
2
 11
633.0
 21
162.0
 31
0.0
100
AcDbText
 73
2
  0
LINE
  5
114
330
17
100
AcDbEntity
  8
PROCESO
100
AcDbLine
 10
35.0
 20
409.0
 30
0.0
 11
82.0
 21
409.0
 31
0.0
  0
LINE
  5
115
330
17
100
AcDbEntity
  8
PROCESO
100
AcDbLine
 10
35.0
 20
405.0
 30
0.0
 11
82.0
 21
405.0
 31
0.0
  0
LINE
  5
116
330
17
100
AcDbEntity
  8
PROCESO
100
AcDbLine
 10
98.0
 20
409.0
 30
0.0
 11
139.0
 21
409.0
 31
0.0
  0
LINE
  5
117
330
17
100
AcDbEntity
  8
PROCESO
100
AcDbLine
 10
98.0
 20
405.0
 30
0.0
 11
139.0
 21
405.0
 31
0.0
  0
LINE
  5
118
330
17
100
AcDbEntity
  8
PROCESO
100
AcDbLine
 10
171.0
 20
409.0
 30
0.0
 11
238.0
 21
409.0
 31
0.0
  0
LINE
  5
119
330
17
100
AcDbEntity
  8
PROCESO
100
AcDbLine
 10
171.0
 20
405.0
 30
0.0
 11
238.0
 21
405.0
 31
0.0
  0
LINE
  5
11A
330
17
100
AcDbEntity
  8
PROCESO
100
AcDbLine
 10
272.0
 20
409.0
 30
0.0
 11
347.0
 21
409.0
 31
0.0
  0
LINE
  5
11B
330
17
100
AcDbEntity
  8
PROCESO
100
AcDbLine
 10
272.0
 20
405.0
 30
0.0
 11
347.0
 21
405.0
 31
0.0
  0
LINE
  5
11C
330
17
100
AcDbEntity
  8
PROCESO
100
AcDbLine
 10
363.0
 20
409.0
 30
0.0
 11
429.0
 21
409.0
 31
0.0
  0
LINE
  5
11D
330
17
100
AcDbEntity
  8
PROCESO
100
AcDbLine
 10
363.0
 20
405.0
 30
0.0
 11
429.0
 21
405.0
 31
0.0
  0
LINE
  5
11E
330
17
100
AcDbEntity
  8
PROCESO
100
AcDbLine
 10
461.0
 20
409.0
 30
0.0
 11
512.0
 21
409.0
 31
0.0
  0
LINE
  5
11F
330
17
100
AcDbEntity
  8
PROCESO
100
AcDbLine
 10
461.0
 20
405.0
 30
0.0
 11
512.0
 21
405.0
 31
0.0
  0
LINE
  5
120
330
17
100
AcDbEntity
  8
PROCESO
100
AcDbLine
 10
528.0
 20
409.0
 30
0.0
 11
616.0
 21
409.0
 31
0.0
  0
LINE
  5
121
330
17
100
AcDbEntity
  8
PROCESO
100
AcDbLine
 10
528.0
 20
405.0
 30
0.0
 11
616.0
 21
405.0
 31
0.0
  0
LINE
  5
122
330
17
100
AcDbEntity
  8
PROCESO
100
AcDbLine
 10
59.0
 20
411.0
 30
0.0
 11
65.0
 21
407.0
 31
0.0
  0
LINE
  5
123
330
17
100
AcDbEntity
  8
PROCESO
100
AcDbLine
 10
59.0
 20
403.0
 30
0.0
 11
65.0
 21
407.0
 31
0.0
  0
LINE
  5
124
330
17
100
AcDbEntity
  8
PROCESO
100
AcDbLine
 10
59.0
 20
403.0
 30
0.0
 11
59.0
 21
411.0
 31
0.0
  0
LINE
  5
125
330
17
100
AcDbEntity
  8
PROCESO
100
AcDbLine
 10
309.0
 20
411.0
 30
0.0
 11
315.0
 21
407.0
 31
0.0
  0
LINE
  5
126
330
17
100
AcDbEntity
  8
PROCESO
100
AcDbLine
 10
309.0
 20
403.0
 30
0.0
 11
315.0
 21
407.0
 31
0.0
  0
LINE
  5
127
330
17
100
AcDbEntity
  8
PROCESO
100
AcDbLine
 10
309.0
 20
403.0
 30
0.0
 11
309.0
 21
411.0
 31
0.0
  0
LINE
  5
128
330
17
100
AcDbEntity
  8
PROCESO
100
AcDbLine
 10
542.0
 20
411.0
 30
0.0
 11
548.0
 21
407.0
 31
0.0
  0
LINE
  5
129
330
17
100
AcDbEntity
  8
PROCESO
100
AcDbLine
 10
542.0
 20
403.0
 30
0.0
 11
548.0
 21
407.0
 31
0.0
  0
LINE
  5
12A
330
17
100
AcDbEntity
  8
PROCESO
100
AcDbLine
 10
542.0
 20
403.0
 30
0.0
 11
542.0
 21
411.0
 31
0.0
  0
TEXT
  5
12B
330
17
100
AcDbEntity
  8
ANOTACIONES
100
AcDbText
 10
30.0
 20
416.0
 30
0.0
 40
3.0
  1
ENTRADA
 11
30.0
 21
416.0
 31
0.0
100
AcDbText
  0
TEXT
  5
12C
330
17
100
AcDbEntity
  8
ANOTACIONES
100
AcDbText
 10
619.0
 20
416.0
 30
0.0
 40
3.0
  1
SALIDA
 11
619.0
 21
416.0
 31
0.0
100
AcDbText
  0
TEXT
  5
12D
330
17
100
AcDbEntity
  8
ANOTACIONES
100
AcDbText
 10
35.0
 20
393.0
 30
0.0
 40
2.5
  1
DN4" / 40 kg/cm2
 11
35.0
 21
393.0
 31
0.0
100
AcDbText
  0
INSERT
  5
12E
330
17
100
AcDbEntity
  8
VALVULAS
100
AcDbBlockReference
  2
ISA_GATE_VALVE
 10
90.0
 20
407.0
 30
0.0
  0
TEXT
  5
130
330
17
100
AcDbEntity
  8
ANOTACIONES
100
AcDbText
 10
90.0
 20
427.0
 30
0.0
 40
2.5
  1
V-100
 72
1
 11
90.0
 21
427.0
 31
0.0
100
AcDbText
 73
2
  0
INSERT
  5
131
330
17
100
AcDbEntity
  8
VALVULAS
100
AcDbBlockReference
  2
ISA_GATE_VALVE
 10
355.0
 20
407.0
 30
0.0
  0
TEXT
  5
133
330
17
100
AcDbEntity
  8
ANOTACIONES
100
AcDbText
 10
355.0
 20
427.0
 30
0.0
 40
2.5
  1
V-101
 72
1
 11
355.0
 21
427.0
 31
0.0
100
AcDbText
 73
2
  0
INSERT
  5
134
330
17
100
AcDbEntity
  8
VALVULAS
100
AcDbBlockReference
  2
ISA_GATE_VALVE
 10
520.0
 20
407.0
 30
0.0
  0
TEXT
  5
136
330
17
100
AcDbEntity
  8
ANOTACIONES
100
AcDbText
 10
520.0
 20
427.0
 30
0.0
 40
2.5
  1
V-102
 72
1
 11
520.0
 21
427.0
 31
0.0
100
AcDbText
 73
2
  0
INSERT
  5
137
330
17
100
AcDbEntity
  8
VALVULAS
100
AcDbBlockReference
  2
ISA_STRAINER
 10
155.0
 20
407.0
 30
0.0
  0
TEXT
  5
139
330
17
100
AcDbEntity
  8
ANOTACIONES
100
AcDbText
 10
155.0
 20
427.0
 30
0.0
 40
2.5
  1
SEP-100
 72
1
 11
155.0
 21
427.0
 31
0.0
100
AcDbText
 73
2
  0
TEXT
  5
13A
330
17
100
AcDbEntity
  8
ANOTACIONES
100
AcDbText
 10
155.0
 20
435.0
 30
0.0
 40
2.0
  1
SEPARADOR/FILTRO
 72
1
 11
155.0
 21
435.0
 31
0.0
100
AcDbText
 73
2
  0
INSERT
  5
13B
330
17
100
AcDbEntity
  8
PROCESO
100
AcDbBlockReference
  2
ISA_ULTRASONIC
 10
255.0
 20
407.0
 30
0.0
  0
TEXT
  5
13D
330
17
100
AcDbEntity
  8
ANOTACIONES
100
AcDbText
 10
255.0
 20
435.0
 30
0.0
 40
2.5
  1
FE-100
 72
1
 11
255.0
 21
435.0
 31
0.0
100
AcDbText
 73
2
  0
TEXT
  5
13E
330
17
100
AcDbEntity
  8
ANOTACIONES
100
AcDbText
 10
255.0
 20
443.0
 30
0.0
 40
2.5
  1
Ultrasonico
 72
1
 11
255.0
 21
443.0
 31
0.0
100
AcDbText
 73
2
  0
INSERT
  5
13F
330
17
100
AcDbEntity
  8
VALVULAS
100
AcDbBlockReference
  2
ISA_CONTROL_VALVE
 10
445.0
 20
407.0
 30
0.0
  0
TEXT
  5
141
330
17
100
AcDbEntity
  8
ANOTACIONES
100
AcDbText
 10
445.0
 20
445.0
 30
0.0
 40
2.5
  1
PCV-100
 72
1
 11
445.0
 21
445.0
 31
0.0
100
AcDbText
 73
2
  0
TEXT
  5
142
330
17
100
AcDbEntity
  8
ANOTACIONES
100
AcDbText
 10
445.0
 20
453.0
 30
0.0
 40
2.0
  1
REG. PRESION
 72
1
 11
445.0
 21
453.0
 31
0.0
100
AcDbText
 73
2
  0
INSERT
  5
14A
330
17
100
AcDbEntity
  8
INSTRUMENTOS
100
AcDbBlockReference
  2
*U1
 10
185.0
 20
347.0
 30
0.0
  0
LINE
  5
14C
330
17
100
AcDbEntity
  8
INSTRUMENTOS
100
AcDbLine
 10
185.0
 20
355.0
 30
0.0
 11
185.0
 21
405.0
 31
0.0
  0
TEXT
  5
14D
330
17
100
AcDbEntity
  8
ANOTACIONES
100
AcDbText
 10
185.0
 20
331.0
 30
0.0
 40
2.0
  1
TRANS.PRESION
 72
1
 11
185.0
 21
331.0
 31
0.0
100
AcDbText
 73
2
  0
INSERT
  5
155
330
17
100
AcDbEntity
  8
INSTRUMENTOS
100
AcDbBlockReference
  2
*U2
 10
217.0
 20
347.0
 30
0.0
  0
LINE
  5
157
330
17
100
AcDbEntity
  8
INSTRUMENTOS
100
AcDbLine
 10
217.0
 20
355.0
 30
0.0
 11
217.0
 21
405.0
 31
0.0
  0
TEXT
  5
158
330
17
100
AcDbEntity
  8
ANOTACIONES
100
AcDbText
 10
217.0
 20
331.0
 30
0.0
 40
2.0
  1
TRANS.TEMP
 72
1
 11
217.0
 21
331.0
 31
0.0
100
AcDbText
 73
2
  0
INSERT
  5
160
330
17
100
AcDbEntity
  8
INSTRUMENTOS
100
AcDbBlockReference
  2
*U3
 10
255.0
 20
347.0
 30
0.0
  0
LINE
  5
162
330
17
100
AcDbEntity
  8
INSTRUMENTOS
100
AcDbLine
 10
255.0
 20
355.0
 30
0.0
 11
255.0
 21
405.0
 31
0.0
  0
TEXT
  5
163
330
17
100
AcDbEntity
  8
ANOTACIONES
100
AcDbText
 10
255.0
 20
331.0
 30
0.0
 40
2.0
  1
TRANS.FLUJO
 72
1
 11
255.0
 21
331.0
 31
0.0
100
AcDbText
 73
2
  0
INSERT
  5
16B
330
17
100
AcDbEntity
  8
INSTRUMENTOS
100
AcDbBlockReference
  2
*U4
 10
445.0
 20
347.0
 30
0.0
  0
LINE
  5
16D
330
17
100
AcDbEntity
  8
INSTRUMENTOS
100
AcDbLine
 10
445.0
 20
355.0
 30
0.0
 11
445.0
 21
405.0
 31
0.0
  0
TEXT
  5
16E
330
17
100
AcDbEntity
  8
ANOTACIONES
100
AcDbText
 10
445.0
 20
331.0
 30
0.0
 40
2.0
  1
TRANS.P.BAJA
 72
1
 11
445.0
 21
331.0
 31
0.0
100
AcDbText
 73
2
  0
LINE
  5
16F
330
17
100
AcDbEntity
  8
INSTRUMENTOS
100
AcDbLine
 10
345.0
 20
337.0
 30
0.0
 11
365.0
 21
337.0
 31
0.0
  0
LINE
  5
170
330
17
100
AcDbEntity
  8
INSTRUMENTOS
100
AcDbLine
 10
365.0
 20
337.0
 30
0.0
 11
365.0
 21
357.0
 31
0.0
  0
LINE
  5
171
330
17
100
AcDbEntity
  8
INSTRUMENTOS
100
AcDbLine
 10
365.0
 20
357.0
 30
0.0
 11
345.0
 21
357.0
 31
0.0
  0
LINE
  5
172
330
17
100
AcDbEntity
  8
INSTRUMENTOS
100
AcDbLine
 10
345.0
 20
357.0
 30
0.0
 11
345.0
 21
337.0
 31
0.0
  0
LINE
  5
173
330
17
100
AcDbEntity
  8
INSTRUMENTOS
100
AcDbLine
 10
345.0
 20
347.0
 30
0.0
 11
365.0
 21
347.0
 31
0.0
  0
TEXT
  5
174
330
17
100
AcDbEntity
  8
INSTRUMENTOS
100
AcDbText
 10
355.0
 20
350.0
 30
0.0
 40
2.5
  1
FQI
 72
1
 11
355.0
 21
350.0
 31
0.0
100
AcDbText
 73
2
  0
TEXT
  5
175
330
17
100
AcDbEntity
  8
INSTRUMENTOS
100
AcDbText
 10
355.0
 20
341.0
 30
0.0
 40
2.0
  1
100
 72
1
 11
355.0
 21
341.0
 31
0.0
100
AcDbText
 73
2
  0
LINE
  5
176
330
17
100
AcDbEntity
  8
INSTRUMENTOS
100
AcDbLine
 10
255.0
 20
347.0
 30
0.0
 11
345.0
 21
347.0
 31
0.0
  0
TEXT
  5
177
330
17
100
AcDbEntity
  8
ANOTACIONES
100
AcDbText
 10
355.0
 20
325.0
 30
0.0
 40
2.5
  1
COMP.FLUJO
 72
1
 11
355.0
 21
325.0
 31
0.0
100
AcDbText
 73
2
  0
DIMENSION
  5
178
330
17
100
AcDbEntity
  8
0
100
AcDbDimension
280
0
  2
*D5
  3
Standard
 10
171.0
 20
431.0
 30
0.0
 11
259.0
 21
431.0
 31
0.0
 70
32
 71
5
  1
<>
100
AcDbAlignedDimension
 13
171.0
 23
407.0
 33
0.0
 14
347.0
 24
407.0
 34
0.0
 50
0.0
100
AcDbRotatedDimension
1001
ACAD
1000
DSTYLE
1002
{
1070
140
1040
2.5
1070
41
1040
3.0
1002
}
  0
TEXT
  5
18C
330
17
100
AcDbEntity
  8
COTAS
100
AcDbText
 10
259.0
 20
437.0
 30
0.0
 40
2.0
  1
TRAMO MEDICION
 72
1
 11
259.0
 21
437.0
 31
0.0
100
AcDbText
 73
2
  0
TEXT
  5
18D
330
17
100
AcDbEntity
  8
PROCESO
100
AcDbText
 10
323.0
 20
579.0
 30
0.0
 40
5.0
  1
DIAGRAMA ESQUEMATICO P&ID - ESTACION DE MEDICION DE GAS NATU
 72
1
 11
323.0
 21
579.0
 31
0.0
100
AcDbText
 73
2
  0
TEXT
  5
18E
330
17
100
AcDbEntity
  8
ANOTACIONES
100
AcDbText
 10
323.0
 20
566.0
 30
0.0
 40
3.0
  1
City Gate / Ultrasonico / FISCAL
 72
1
 11
323.0
 21
566.0
 31
0.0
100
AcDbText
 73
2
  0
TEXT
  5
18F
330
17
100
AcDbEntity
  8
ANOTACIONES
100
AcDbText
 10
18.0
 20
320.0
 30
0.0
 40
2.5
  1
NOTAS DE DISENO:
 11
18.0
 21
320.0
 31
0.0
100
AcDbText
  0
TEXT
  5
190
330
17
100
AcDbEntity
  8
ANOTACIONES
100
AcDbText
 10
18.0
 20
308.0
 30
0.0
 40
2.5
  1
1. Diagrama esquematico segun ISA 5.1. No representa ubicaci
 11
18.0
 21
308.0
 31
0.0
100
AcDbText
  0
TEXT
  5
191
330
17
100
AcDbEntity
  8
ANOTACIONES
100
AcDbText
 10
18.0
 20
296.0
 30
0.0
 40
2.5
  1
2. Tecnologia: Ultrasonico (AGA 9).
 11
18.0
 21
296.0
 31
0.0
100
AcDbText
  0
TEXT
  5
192
330
17
100
AcDbEntity
  8
ANOTACIONES
100
AcDbText
 10
18.0
 20
284.0
 30
0.0
 40
2.5
  1
3. Instrumentacion de referencia normativa AGA / NOM-020-ASE
 11
18.0
 21
284.0
 31
0.0
100
AcDbText
  0
TEXT
  5
193
330
17
100
AcDbEntity
  8
ANOTACIONES
100
AcDbText
 10
18.0
 20
272.0
 30
0.0
 40
2.5
  1
4. Z calculado con AGA 8 DETAIL (GERG-2008 simplificada).
 11
18.0
 21
272.0
 31
0.0
100
AcDbText
  0
TEXT
  5
194
330
17
100
AcDbEntity
  8
ANOTACIONES
100
AcDbText
 10
18.0
 20
260.0
 30
0.0
 40
2.5
  1
5. Punto fiscal.
 11
18.0
 21
260.0
 31
0.0
100
AcDbText
  0
ENDSEC
  0
SECTION
  2
OBJECTS
  0
DICTIONARY
  5
A
330
0
100
AcDbDictionary
280
0
281
1
  3
ACAD_COLOR
350
B
  3
ACAD_GROUP
350
C
  3
ACAD_LAYOUT
350
D
  3
ACAD_MATERIAL
350
E
  3
ACAD_MLEADERSTYLE
350
F
  3
ACAD_MLINESTYLE
350
10
  3
ACAD_PLOTSETTINGS
350
11
  3
ACAD_PLOTSTYLENAME
350
12
  3
ACAD_SCALELIST
350
14
  3
ACAD_TABLESTYLE
350
15
  3
ACAD_VISUALSTYLE
350
16
  3
EZDXF_META
350
2D
  0
DICTIONARY
  5
B
330
A
100
AcDbDictionary
280
0
281
1
  0
DICTIONARY
  5
C
330
A
100
AcDbDictionary
280
0
281
1
  0
DICTIONARY
  5
D
330
A
100
AcDbDictionary
280
0
281
1
  3
Model
350
1A
  3
Layout1
350
1E
  0
DICTIONARY
  5
E
330
A
100
AcDbDictionary
280
0
281
1
  3
ByBlock
350
1F
  3
ByLayer
350
20
  3
Global
350
21
  0
DICTIONARY
  5
F
330
A
100
AcDbDictionary
280
0
281
1
  3
Standard
350
2C
  0
DICTIONARY
  5
10
330
A
100
AcDbDictionary
280
0
281
1
  3
Standard
350
22
  0
DICTIONARY
  5
11
330
A
100
AcDbDictionary
280
0
281
1
  0
ACDBDICTIONARYWDFLT
  5
12
330
A
100
AcDbDictionary
280
0
281
1
  3
Normal
350
13
100
AcDbDictionaryWithDefault
340
13
  0
ACDBPLACEHOLDER
  5
13
330
12
  0
DICTIONARY
  5
14
330
A
100
AcDbDictionary
280
0
281
1
  0
DICTIONARY
  5
15
330
A
100
AcDbDictionary
280
0
281
1
  0
DICTIONARY
  5
16
330
A
100
AcDbDictionary
280
0
281
1
  0
LAYOUT
  5
1A
330
D
100
AcDbPlotSettings
  1

  4
A3
  6

 40
7.5
 41
20.0
 42
7.5
 43
20.0
 44
420.0
 45
297.0
 46
0.0
 47
0.0
 48
0.0
 49
0.0
140
0.0
141
0.0
142
1.0
143
1.0
 70
1024
 72
1
 73
0
 74
5
  7

 75
16
 76
0
 77
2
 78
300
147
1.0
148
0.0
149
0.0
100
AcDbLayout
  1
Model
 70
1
 71
0
 10
0.0
 20
0.0
 11
420.0
 21
297.0
 12
0.0
 22
0.0
 32
0.0
 14
1e+20
 24
1e+20
 34
1e+20
 15
-1e+20
 25
-1e+20
 35
-1e+20
146
0.0
 13
0.0
 23
0.0
 33
0.0
 16
1.0
 26
0.0
 36
0.0
 17
0.0
 27
1.0
 37
0.0
 76
1
330
17
  0
LAYOUT
  5
1E
330
D
100
AcDbPlotSettings
  1

  4
A3
  6

 40
7.5
 41
20.0
 42
7.5
 43
20.0
 44
420.0
 45
297.0
 46
0.0
 47
0.0
 48
0.0
 49
0.0
140
0.0
141
0.0
142
1.0
143
1.0
 70
0
 72
1
 73
0
 74
5
  7

 75
16
 76
0
 77
2
 78
300
147
1.0
148
0.0
149
0.0
100
AcDbLayout
  1
Layout1
 70
1
 71
1
 10
0.0
 20
0.0
 11
420.0
 21
297.0
 12
0.0
 22
0.0
 32
0.0
 14
1e+20
 24
1e+20
 34
1e+20
 15
-1e+20
 25
-1e+20
 35
-1e+20
146
0.0
 13
0.0
 23
0.0
 33
0.0
 16
1.0
 26
0.0
 36
0.0
 17
0.0
 27
1.0
 37
0.0
 76
1
330
1B
  0
MATERIAL
  5
1F
102
{ACAD_REACTORS
330
E
102
}
330
E
100
AcDbMaterial
  1
ByBlock
  2

 70
0
 40
1.0
 71
1
 41
1.0
 91
-1023410177
 42
1.0
 72
1
  3

 73
1
 74
1
 75
1
 44
0.5
 73
0
 45
1.0
 46
1.0
 77
1
  4

 78
1
 79
1
170
1
 48
1.0
171
1
  6

172
1
173
1
174
1
140
1.0
141
1.0
175
1
  7

176
1
177
1
178
1
143
1.0
179
1
  8

270
1
271
1
272
1
145
1.0
146
1.0
273
1
  9

274
1
275
1
276
1
 42
1.0
 72
1
  3

 73
1
 74
1
 75
1
 94
63
  0
MATERIAL
  5
20
102
{ACAD_REACTORS
330
E
102
}
330
E
100
AcDbMaterial
  1
ByLayer
  2

 70
0
 40
1.0
 71
1
 41
1.0
 91
-1023410177
 42
1.0
 72
1
  3

 73
1
 74
1
 75
1
 44
0.5
 73
0
 45
1.0
 46
1.0
 77
1
  4

 78
1
 79
1
170
1
 48
1.0
171
1
  6

172
1
173
1
174
1
140
1.0
141
1.0
175
1
  7

176
1
177
1
178
1
143
1.0
179
1
  8

270
1
271
1
272
1
145
1.0
146
1.0
273
1
  9

274
1
275
1
276
1
 42
1.0
 72
1
  3

 73
1
 74
1
 75
1
 94
63
  0
MATERIAL
  5
21
102
{ACAD_REACTORS
330
E
102
}
330
E
100
AcDbMaterial
  1
Global
  2

 70
0
 40
1.0
 71
1
 41
1.0
 91
-1023410177
 42
1.0
 72
1
  3

 73
1
 74
1
 75
1
 44
0.5
 73
0
 45
1.0
 46
1.0
 77
1
  4

 78
1
 79
1
170
1
 48
1.0
171
1
  6

172
1
173
1
174
1
140
1.0
141
1.0
175
1
  7

176
1
177
1
178
1
143
1.0
179
1
  8

270
1
271
1
272
1
145
1.0
146
1.0
273
1
  9

274
1
275
1
276
1
 42
1.0
 72
1
  3

 73
1
 74
1
 75
1
 94
63
  0
MLINESTYLE
  5
22
102
{ACAD_REACTORS
330
10
102
}
330
10
100
AcDbMlineStyle
  2
Standard
 70
0
  3

 62
256
 51
90.0
 52
90.0
 71
2
 49
0.5
 62
256
  6
BYLAYER
 49
-0.5
 62
256
  6
BYLAYER
  0
MLEADERSTYLE
  5
2C
102
{ACAD_REACTORS
330
F
102
}
330
F
100
AcDbMLeaderStyle
179
2
170
2
171
1
172
0
 90
2
 40
0.0
 41
0.0
173
1
 91
-1056964608
 92
-2
290
1
 42
2.0
291
1
 43
8.0
  3
Standard
 44
4.0
300

342
29
174
1
175
1
176
0
178
1
 93
-1056964608
 45
4.0
292
0
297
0
 46
4.0
 94
-1056964608
 47
1.0
 49
1.0
140
1.0
294
1
141
0.0
177
0
142
1.0
295
0
296
0
143
3.75
271
0
272
9
273
9
  0
DICTIONARY
  5
2D
330
A
100
AcDbDictionary
281
1
  3
CREATED_BY_EZDXF
350
2E
  3
WRITTEN_BY_EZDXF
350
197
  0
DICTIONARYVAR
  5
2E
330
2D
100
DictionaryVariables
280
0
  1
1.3.4 @ 2026-06-24T19:15:12.074401+00:00
  0
DICTIONARYVAR
  5
197
330
2D
100
DictionaryVariables
280
0
  1
1.3.4 @ 2026-06-24T19:15:12.090540+00:00
  0
ENDSEC
  0
EOF
